<?xml version="1.0" encoding="UTF-8"?>
<!--Generator: Apple Native CoreSVG 341-->
<!DOCTYPE svg
PUBLIC "-//W3C//DTD SVG 1.1//EN"
       "http://www.w3.org/Graphics/SVG/1.1/DTD/svg11.dtd">
<svg version="1.1" xmlns="http://www.w3.org/2000/svg" xmlns:xlink="http://www.w3.org/1999/xlink" viewBox="0 0 3300 2200">
 <!--glyph: "1024F4", point size: 100.0, font version: "21.1d1e1", template writer version: "138.0.0"-->
 <style>.SFSymbolsPreviewWireframe {fill:none;opacity:1.0;stroke:black;stroke-width:0.5}
</style>
 <g id="Notes">
  <rect height="2200" id="artboard" style="fill:white;opacity:1" width="3300" x="0" y="0"/>
  <line style="fill:none;stroke:black;opacity:1;stroke-width:0.5;" x1="263" x2="3036" y1="292" y2="292"/>
  <text style="stroke:none;fill:black;font-family:sans-serif;font-size:13;font-weight:bold;" transform="matrix(1 0 0 1 263 322)">Weight/Scale Variations</text>
  <text style="stroke:none;fill:black;font-family:sans-serif;font-size:13;text-anchor:middle;" transform="matrix(1 0 0 1 559.711 322)">Ultralight</text>
  <text style="stroke:none;fill:black;font-family:sans-serif;font-size:13;text-anchor:middle;" transform="matrix(1 0 0 1 856.422 322)">Thin</text>
  <text style="stroke:none;fill:black;font-family:sans-serif;font-size:13;text-anchor:middle;" transform="matrix(1 0 0 1 1153.13 322)">Light</text>
  <text style="stroke:none;fill:black;font-family:sans-serif;font-size:13;text-anchor:middle;" transform="matrix(1 0 0 1 1449.84 322)">Regular</text>
  <text style="stroke:none;fill:black;font-family:sans-serif;font-size:13;text-anchor:middle;" transform="matrix(1 0 0 1 1746.56 322)">Medium</text>
  <text style="stroke:none;fill:black;font-family:sans-serif;font-size:13;text-anchor:middle;" transform="matrix(1 0 0 1 2043.27 322)">Semibold</text>
  <text style="stroke:none;fill:black;font-family:sans-serif;font-size:13;text-anchor:middle;" transform="matrix(1 0 0 1 2339.98 322)">Bold</text>
  <text style="stroke:none;fill:black;font-family:sans-serif;font-size:13;text-anchor:middle;" transform="matrix(1 0 0 1 2636.69 322)">Heavy</text>
  <text style="stroke:none;fill:black;font-family:sans-serif;font-size:13;text-anchor:middle;" transform="matrix(1 0 0 1 2933.4 322)">Black</text>
  <line style="fill:none;stroke:black;opacity:1;stroke-width:0.5;" x1="263" x2="3036" y1="1903" y2="1903"/>
  <g transform="matrix(0.2 0 0 0.2 263 1933)">
   <path d="m46.2402 4.15039c21.7773 0 39.4531-17.627 39.4531-39.4043s-17.6758-39.4043-39.4531-39.4043c-21.7285 0-39.4043 17.627-39.4043 39.4043s17.6758 39.4043 39.4043 39.4043Zm0-7.42188c-17.6758 0-31.9336-14.3066-31.9336-31.9824s14.2578-31.9824 31.9336-31.9824 31.9824 14.3066 31.9824 31.9824-14.3066 31.9824-31.9824 31.9824Zm3.61328-17.7734v-28.4668c0-2.24609-1.46484-3.75977-3.71094-3.75977-2.14844 0-3.61328 1.51367-3.61328 3.75977v28.4668c0 2.19727 1.46484 3.71094 3.61328 3.71094 2.24609 0 3.71094-1.51367 3.71094-3.71094Zm-17.8223-10.5957h28.418c2.19727 0 3.71094-1.46484 3.71094-3.61328 0-2.19727-1.51367-3.71094-3.71094-3.71094h-28.418c-2.24609 0-3.75977 1.51367-3.75977 3.71094 0 2.14844 1.51367 3.61328 3.75977 3.61328Z"/>
  </g>
  <g transform="matrix(0.2 0 0 0.2 281.506 1933)">
   <path d="m58.5449 14.5508c27.4902 0 49.8047-22.3145 49.8047-49.8047s-22.3145-49.8047-49.8047-49.8047-49.8047 22.3145-49.8047 49.8047 22.3145 49.8047 49.8047 49.8047Zm0-8.30078c-22.9492 0-41.5039-18.5547-41.5039-41.5039s18.5547-41.5039 41.5039-41.5039 41.5039 18.5547 41.5039 41.5039-18.5547 41.5039-41.5039 41.5039Zm4.05273-23.0957v-36.9141c0-2.49023-1.70898-4.19922-4.15039-4.19922-2.39258 0-4.05273 1.70898-4.05273 4.19922v36.9141c0 2.44141 1.66016 4.15039 4.05273 4.15039 2.44141 0 4.15039-1.66016 4.15039-4.15039Zm-22.5586-14.4043h36.9629c2.44141 0 4.15039-1.61133 4.15039-4.00391 0-2.44141-1.70898-4.15039-4.15039-4.15039h-36.9629c-2.49023 0-4.15039 1.70898-4.15039 4.15039 0 2.39258 1.66016 4.00391 4.15039 4.00391Z"/>
  </g>
  <g transform="matrix(0.2 0 0 0.2 304.924 1933)">
   <path d="m74.8535 28.3203c35.1074 0 63.623-28.4668 63.623-63.5742s-28.5156-63.623-63.623-63.623-63.5742 28.5156-63.5742 63.623 28.4668 63.5742 63.5742 63.5742Zm0-9.08203c-30.127 0-54.4922-24.3652-54.4922-54.4922s24.3652-54.4922 54.4922-54.4922 54.4922 24.3652 54.4922 54.4922-24.3652 54.4922-54.4922 54.4922Zm4.44336-30.3223v-48.4863c0-2.73438-1.85547-4.63867-4.54102-4.63867-2.58789 0-4.44336 1.9043-4.44336 4.63867v48.4863c0 2.68555 1.85547 4.58984 4.44336 4.58984 2.68555 0 4.54102-1.85547 4.54102-4.58984Zm-28.7109-19.7754h48.4863c2.68555 0 4.58984-1.80664 4.58984-4.39453 0-2.73438-1.85547-4.58984-4.58984-4.58984h-48.4863c-2.73438 0-4.58984 1.85547-4.58984 4.58984 0 2.58789 1.85547 4.39453 4.58984 4.39453Z"/>
  </g>
  <text style="stroke:none;fill:black;font-family:sans-serif;font-size:13;font-weight:bold;" transform="matrix(1 0 0 1 263 1953)">Design Variations</text>
  <text style="stroke:none;fill:black;font-family:sans-serif;font-size:13;" transform="matrix(1 0 0 1 263 1971)">Symbols are supported in up to nine weights and three scales.</text>
  <text style="stroke:none;fill:black;font-family:sans-serif;font-size:13;" transform="matrix(1 0 0 1 263 1989)">For optimal layout with text and other symbols, vertically align</text>
  <text style="stroke:none;fill:black;font-family:sans-serif;font-size:13;" transform="matrix(1 0 0 1 263 2007)">symbols with the adjacent text.</text>
  <line style="fill:none;stroke:#00AEEF;stroke-width:0.5;opacity:1.0;" x1="776" x2="776" y1="1919" y2="1933"/>
  <g transform="matrix(0.2 0 0 0.2 776 1933)">
   <path d="m16.5527 0.78125c2.58789 0 3.85742-0.976562 4.78516-3.71094l20.5566-57.5195h0.244141l20.6055 57.5195c0.927734 2.73438 2.19727 3.71094 4.73633 3.71094 2.58789 0 4.24805-1.5625 4.24805-4.00391 0-0.830078-0.146484-1.61133-0.537109-2.63672l-22.9004-60.9863c-1.12305-2.97852-3.125-4.49219-6.25-4.49219-3.02734 0-5.07812 1.46484-6.15234 4.44336l-22.9004 61.084c-0.390625 1.02539-0.537109 1.80664-0.537109 2.63672 0 2.44141 1.5625 3.95508 4.10156 3.95508Zm10.2051-20.9473h30.6641c2.00195 0 3.66211-1.66016 3.66211-3.66211 0-2.05078-1.66016-3.66211-3.66211-3.66211h-30.6641c-2.00195 0-3.66211 1.61133-3.66211 3.66211 0 2.00195 1.66016 3.66211 3.66211 3.66211Z"/>
  </g>
  <line style="fill:none;stroke:#00AEEF;stroke-width:0.5;opacity:1.0;" x1="792.836" x2="792.836" y1="1919" y2="1933"/>
  <text style="stroke:none;fill:black;font-family:sans-serif;font-size:13;font-weight:bold;" transform="matrix(1 0 0 1 776 1953)">Margins</text>
  <text style="stroke:none;fill:black;font-family:sans-serif;font-size:13;" transform="matrix(1 0 0 1 776 1971)">Leading and trailing margins on the left and right side of each symbol</text>
  <text style="stroke:none;fill:black;font-family:sans-serif;font-size:13;" transform="matrix(1 0 0 1 776 1989)">can be adjusted by modifying the x-location of the margin guidelines.</text>
  <text style="stroke:none;fill:black;font-family:sans-serif;font-size:13;" transform="matrix(1 0 0 1 776 2007)">Modifications are automatically applied proportionally to all</text>
  <text style="stroke:none;fill:black;font-family:sans-serif;font-size:13;" transform="matrix(1 0 0 1 776 2025)">scales and weights.</text>
  <g transform="matrix(0.2 0 0 0.2 1289 1933)">
   <path d="m14.209 13.1348 7.86133 7.86133c4.29688 4.39453 9.32617 4.10156 13.8672-1.02539l60.6934-68.2129-4.88281-4.88281-60.2539 67.6758c-1.80664 1.95312-3.4668 2.44141-5.81055 0.0976562l-5.17578-5.12695c-2.29492-2.29492-1.80664-3.95508 0.195312-5.81055l67.4805-62.1582-4.88281-4.83398-68.0664 62.5977c-4.98047 4.58984-5.32227 9.47266-1.02539 13.8184Zm44.873-97.4609c-2.05078 2.00195-2.24609 4.88281-1.07422 6.78711 1.12305 1.80664 3.4668 3.02734 6.5918 2.24609 5.85938-1.66016 12.5977-2.39258 18.8965 0.927734l-2.68555 7.12891c-1.61133 4.00391-0.732422 6.88477 1.70898 9.42383l10.2539 10.3027c2.34375 2.39258 4.54102 2.44141 7.08008 1.95312l4.44336-0.732422 2.58789 2.53906-0.195312 2.24609c-0.0976562 2.29492 0.537109 4.29688 2.7832 6.49414l3.36914 3.32031c2.29492 2.29492 5.51758 2.49023 7.8125 0.195312l12.9883-13.0371c2.29492-2.34375 2.14844-5.37109-0.195312-7.66602l-3.41797-3.41797c-2.19727-2.19727-4.05273-3.02734-6.34766-2.88086l-2.34375 0.244141-2.44141-2.44141 1.02539-4.6875c0.634766-2.73438-0.244141-4.98047-2.88086-7.61719l-11.2793-11.1816c-12.9395-12.8418-35.5957-11.0352-46.6797-0.146484Zm7.08008 2.05078c8.78906-6.39648 25.9766-5.66406 33.6914 1.95312l12.3047 12.207c1.02539 1.02539 1.2207 1.80664 0.927734 3.32031l-1.46484 6.64062 6.73828 6.68945 4.39453-0.244141c1.12305-0.0488281 1.51367 0.0488281 2.34375 0.878906l2.53906 2.49023-10.8398 10.8398-2.49023-2.49023c-0.830078-0.878906-0.976562-1.2207-0.927734-2.39258l0.292969-4.3457-6.68945-6.73828-6.83594 1.17188c-1.41602 0.292969-2.05078 0.195312-3.17383-0.878906l-8.93555-8.88672c-1.07422-1.02539-1.17188-1.70898-0.488281-3.36914l4.58984-11.4746c-6.10352-6.34766-17.041-7.51953-25.5859-4.58984-0.683594 0.244141-0.927734-0.390625-0.390625-0.78125Z"/>
  </g>
  <text style="stroke:none;fill:black;font-family:sans-serif;font-size:13;font-weight:bold;" transform="matrix(1 0 0 1 1289 1953)">Exporting</text>
  <text style="stroke:none;fill:black;font-family:sans-serif;font-size:13;" transform="matrix(1 0 0 1 1289 1971)">Symbols should be outlined when exporting to ensure the</text>
  <text style="stroke:none;fill:black;font-family:sans-serif;font-size:13;" transform="matrix(1 0 0 1 1289 1989)">design is preserved when submitting to Xcode.</text>
  <text id="template-version" style="stroke:none;fill:black;font-family:sans-serif;font-size:13;text-anchor:end;" transform="matrix(1 0 0 1 3036 1933)">Template v.7.0</text>
  <text style="stroke:none;fill:black;font-family:sans-serif;font-size:13;text-anchor:end;" transform="matrix(1 0 0 1 3036 1951)">Requires Xcode 26 or greater</text>
  <text id="descriptive-name" style="stroke:none;fill:black;font-family:sans-serif;font-size:13;text-anchor:end;" transform="matrix(1 0 0 1 3036 1969)">Generated from motorcycle</text>
  <text style="stroke:none;fill:black;font-family:sans-serif;font-size:13;text-anchor:end;" transform="matrix(1 0 0 1 3036 1987)">Typeset at 100.0 points</text>
  <text style="stroke:none;fill:black;font-family:sans-serif;font-size:13;" transform="matrix(1 0 0 1 263 726)">Small</text>
  <text style="stroke:none;fill:black;font-family:sans-serif;font-size:13;" transform="matrix(1 0 0 1 263 1156)">Medium</text>
  <text style="stroke:none;fill:black;font-family:sans-serif;font-size:13;" transform="matrix(1 0 0 1 263 1586)">Large</text>
 </g>
 <g id="Guides">
  <g id="H-reference" style="fill:#27AAE1;stroke:none;" transform="matrix(1 0 0 1 339 696)">
   <path d="M0.993654 0L3.63775 0L29.3281-67.1323L30.0303-67.1323L30.0303-70.459L28.1226-70.459ZM11.6885-24.4799L46.9815-24.4799L46.2315-26.7285L12.4385-26.7285ZM55.1196 0L57.7637 0L30.6382-70.459L29.4326-70.459L29.4326-67.1323Z"/>
  </g>
  <line id="Baseline-S" style="fill:none;stroke:#27AAE1;opacity:1;stroke-width:0.5;" x1="263" x2="3036" y1="696" y2="696"/>
  <line id="Capline-S" style="fill:none;stroke:#27AAE1;opacity:1;stroke-width:0.5;" x1="263" x2="3036" y1="625.541" y2="625.541"/>
  <g id="H-reference" style="fill:#27AAE1;stroke:none;" transform="matrix(1 0 0 1 339 1126)">
   <path d="M0.993654 0L3.63775 0L29.3281-67.1323L30.0303-67.1323L30.0303-70.459L28.1226-70.459ZM11.6885-24.4799L46.9815-24.4799L46.2315-26.7285L12.4385-26.7285ZM55.1196 0L57.7637 0L30.6382-70.459L29.4326-70.459L29.4326-67.1323Z"/>
  </g>
  <line id="Baseline-M" style="fill:none;stroke:#27AAE1;opacity:1;stroke-width:0.5;" x1="263" x2="3036" y1="1126" y2="1126"/>
  <line id="Capline-M" style="fill:none;stroke:#27AAE1;opacity:1;stroke-width:0.5;" x1="263" x2="3036" y1="1055.54" y2="1055.54"/>
  <g id="H-reference" style="fill:#27AAE1;stroke:none;" transform="matrix(1 0 0 1 339 1556)">
   <path d="M0.993654 0L3.63775 0L29.3281-67.1323L30.0303-67.1323L30.0303-70.459L28.1226-70.459ZM11.6885-24.4799L46.9815-24.4799L46.2315-26.7285L12.4385-26.7285ZM55.1196 0L57.7637 0L30.6382-70.459L29.4326-70.459L29.4326-67.1323Z"/>
  </g>
  <line id="Baseline-L" style="fill:none;stroke:#27AAE1;opacity:1;stroke-width:0.5;" x1="263" x2="3036" y1="1556" y2="1556"/>
  <line id="Capline-L" style="fill:none;stroke:#27AAE1;opacity:1;stroke-width:0.5;" x1="263" x2="3036" y1="1485.54" y2="1485.54"/>
  <line id="right-margin-Regular-M" style="fill:none;stroke:#00AEEF;stroke-width:0.5;opacity:1.0;" x1="1544.22" x2="1544.22" y1="1030.79" y2="1150.12"/>
  <line id="left-margin-Regular-M" style="fill:none;stroke:#00AEEF;stroke-width:0.5;opacity:1.0;" x1="1355.47" x2="1355.47" y1="1030.79" y2="1150.12"/>
 </g>
 <g id="Symbols">
  <g id="Black-L" transform="matrix(1 0 0 1 2801.5 1556)">
   <path class="SFSymbolsPreviewWireframe" d="M59.0949 2.85476L107.571-34.9486C127.015-50.1569 136.543-54.6069 146.822-54.6069C156.641-54.6069 161.133-48.5504 161.133-41.7952C161.133-33.7011 154.255-26.3359 140.996-26.3359C127.773-26.3359 118.265-31.7399 107.696-43.5209L94.5815-33.6636C105.408-20.6611 120.033-11.3235 140.117-11.3235C162.639-11.3235 177.163-23.2884 177.163-42.0334C177.163-57.9947 167.032-69.4364 148.489-69.6181C134.51-69.7205 121.727-64.7668 101.202-48.7455L50.1555-8.93406ZM54.5274 35.9114C75.7123 35.9114 92.8123 18.731 92.8123-2.45276C92.8123-23.6377 75.7123-40.8973 54.5274-40.8973C33.2048-40.8973 16.084-23.6377 16.084-2.45276C16.084 18.7518 33.2048 35.9114 54.5274 35.9114ZM54.4481 20.9406C41.4435 20.9406 30.9755 10.509 30.9755-2.59039C30.9755-15.5157 41.502-25.9265 54.4481-25.9265C67.3735-25.9265 77.9207-15.5742 77.9207-2.59039C77.9207 10.4506 67.3735 20.9406 54.4481 20.9406ZM61.7425-54.0777L93.8469-54.0777C98.0959-54.0777 101.556-57.5361 101.556-61.7863C101.556-66.0353 98.0751-69.5158 93.8469-69.5158L61.7425-69.5158C57.5132-69.5158 54.0339-66.0353 54.0339-61.7863C54.0339-57.5361 57.4923-54.0777 61.7425-54.0777ZM209.432 35.9114C230.617 35.9114 247.717 18.731 247.717-2.45276C247.717-23.6377 230.617-40.8973 209.432-40.8973C188.11-40.8973 170.989-23.6377 170.989-2.45276C170.989 18.7518 188.11 35.9114 209.432 35.9114ZM209.353 20.9406C196.349 20.9406 185.881 10.509 185.881-2.59039C185.881-15.5157 196.407-25.9265 209.353-25.9265C222.279-25.9265 232.826-15.5742 232.826-2.59039C232.826 10.4506 222.279 20.9406 209.353 20.9406ZM209.391 8.6883C215.605 8.6883 220.571 3.70191 220.571-2.53318C220.571-8.82787 215.684-13.7338 209.391-13.7338C203.075-13.7338 198.273-8.90709 198.194-2.59159C198.115 3.70191 202.996 8.6883 209.391 8.6883ZM202.609 2.15581L217.331-2.01006L188.2-100.653C186.982-104.839 183.381-106.721 178.4-106.721L157.005-106.721C152.734-106.721 149.297-103.261 149.297-99.0122C149.297-94.7412 152.734-91.2828 157.005-91.2828L174.716-91.2828C175.376-91.2828 175.735-91.0843 175.917-90.485ZM218.38-52.9313C221.463-52.6328 222.876-55.0814 222.279-58.0256L217.563-80.8468C216.965-83.8131 214.678-85.2262 211.931-83.7327C209.664-82.4792 207.652-80.6288 206.181-78.4203C201.088-70.959 203.317-60.3926 210.837-55.5979C212.965-54.1264 215.633-53.1505 218.38-52.9313ZM54.4613 8.6895C60.6964 8.6895 65.662 3.70311 65.662-2.53198C65.662-8.82667 60.7756-13.7326 54.4613-13.7326C48.1666-13.7326 43.3647-8.9059 43.2855-2.59039C43.2063 3.70311 48.0874 8.6895 54.4613 8.6895ZM109.705 13.9259L128.627 13.9259C132.686 13.9259 134.823 12.6652 136.91 9.94856L163.346-24.3041L142.213-21.2315L127.289-2.45519C126.723-1.71344 126.338-1.51097 125.093-1.51097L109.705-1.51097C105.456-1.51097 101.996 1.94744 101.996 6.19763C101.996 10.4674 105.456 13.9259 109.705 13.9259Z"/>
  </g>
  <g id="Heavy-L" transform="matrix(1 0 0 1 2507.32 1556)">
   <path class="SFSymbolsPreviewWireframe" d="M57.2908 1.74172L105.381-36.0837C124.341-51.0286 134.039-55.4156 144.236-55.4156C154.675-55.4156 159.381-49.132 159.381-41.9994C159.381-33.6996 152.415-26.3094 138.818-26.3094C125.601-26.3094 115.623-31.8123 105.455-43.2273L93.4901-34.1986C104.248-21.3574 118.868-12.6479 138.109-12.6479C159.972-12.6479 173.878-24.3993 173.878-42.0244C173.878-57.7081 163.968-68.8805 145.648-69.0715C132.082-69.1877 119.37-64.1646 99.8143-48.8061L49.1678-8.98143ZM53.4312 34.0311C74.0151 34.0311 90.6288 17.3371 90.6288-3.24126C90.6288-23.8252 74.0151-40.5941 53.4312-40.5941C32.7278-40.5941 16.084-23.8252 16.084-3.24126C16.084 17.3672 32.7278 34.0311 53.4312 34.0311ZM53.3564 20.43C40.1684 20.43 29.6104 9.8807 29.6104-3.36069C29.6104-16.4738 40.2131-26.9929 53.3564-26.9929C66.4695-26.9929 77.1024-16.5184 77.1024-3.36069C77.1024 9.83607 66.4695 20.43 53.3564 20.43ZM61.2372-54.121L92.6215-54.121C96.4573-54.121 99.5855-57.2435 99.5855-61.0849C99.5855-64.9208 96.4272-68.0791 92.6215-68.0791L61.2372-68.0791C57.4259-68.0791 54.2732-64.9208 54.2732-61.0849C54.2732-57.2435 57.3957-54.121 61.2372-54.121ZM205.456 34.0311C226.04 34.0311 242.654 17.3371 242.654-3.24126C242.654-23.8252 226.04-40.5941 205.456-40.5941C184.753-40.5941 168.109-23.8252 168.109-3.24126C168.109 17.3672 184.753 34.0311 205.456 34.0311ZM205.381 20.43C192.193 20.43 181.635 9.8807 181.635-3.36069C181.635-16.4738 192.238-26.9929 205.381-26.9929C218.494-26.9929 229.127-16.5184 229.127-3.36069C229.127 9.83607 218.494 20.43 205.381 20.43ZM205.396 7.12815C211.165 7.12815 215.785 2.47767 215.785-3.32168C215.785-9.17126 211.24-13.7413 205.396-13.7413C199.516-13.7413 195.097-9.24607 195.022-3.3663C194.947 2.47767 199.441 7.12815 205.396 7.12815ZM199.23 0.379283L212.503-3.51184L182.115-99.1765C180.918-103.04 177.654-104.758 173.031-104.758L152.392-104.758C148.52-104.758 145.428-101.63 145.428-97.7939C145.428-93.9222 148.52-90.7997 152.392-90.7997L169.793-90.7997C170.421-90.7997 170.757-90.6244 170.948-90.0527ZM212.172-53.4112C215.045-53.1309 216.372-55.4289 215.811-58.1769L211.406-79.5151C210.84-82.2989 208.703-83.6254 206.125-82.2184C204.018-81.0471 202.125-79.3153 200.754-77.2529C195.994-70.2753 198.086-60.3888 205.109-55.9091C207.091-54.5379 209.594-53.6167 212.172-53.4112ZM53.3238 7.13376C59.1231 7.13376 63.7434 2.48328 63.7434-3.31607C63.7434-9.16565 59.1979-13.7357 53.3238-13.7357C47.4742-13.7357 43.0551-9.24045 42.9803-3.36069C42.9055 2.48328 47.3994 7.13376 53.3238 7.13376ZM107.469 12.2281L125.884 12.2281C129.655 12.2281 131.582 11.1175 133.656 8.51994L159.725-24.0237L140.518-21.6584L124.87-2.65928C124.296-1.94564 123.878-1.72443 122.651-1.72443L107.469-1.72443C103.633-1.72443 100.505 1.39808 100.505 5.23956C100.505 9.10561 103.633 12.2281 107.469 12.2281Z"/>
  </g>
  <g id="Bold-L" transform="matrix(1 0 0 1 2213.71 1556)">
   <path class="SFSymbolsPreviewWireframe" d="M55.2485 0.306574L102.705-37.5569C121.074-52.2311 131.032-56.5264 141.122-56.5264C152.261-56.5264 157.296-50.0182 157.296-42.3349C157.296-33.789 150.185-26.2637 136.106-26.2637C122.733-26.2637 112.26-31.9789 102.591-43.03L92.1675-35.1128C102.849-22.3746 117.32-14.389 135.597-14.389C156.608-14.389 169.79-25.8642 169.79-42.1507C169.79-57.4142 160.18-68.189 142.218-68.3879C129.189-68.5195 116.532-63.4267 98.19-48.8606L48.1994-9.01301ZM52.1755 31.8743C72.0738 31.8743 88.1327 15.7349 88.1327-4.15007C88.1327-24.0483 72.0738-40.2549 52.1755-40.2549C32.1809-40.2549 16.084-24.0483 16.084-4.15007C16.084 15.7729 32.1809 31.8743 52.1755 31.8743ZM52.1083 20.0755C38.5708 20.0755 27.8155 9.29831 27.8155-4.24647C27.8155-17.7169 38.6-28.4561 52.1083-28.4561C65.5787-28.4561 76.4011-17.7461 76.4011-4.24647C76.4011 9.26911 65.5787 20.0755 52.1083 20.0755ZM60.5327-54.2791L91.0927-54.2791C94.3915-54.2791 97.0899-56.9643 97.0899-60.2763C97.0899-63.575 94.3535-66.3114 91.0927-66.3114L60.5327-66.3114C57.2587-66.3114 54.5355-63.575 54.5355-60.2763C54.5355-56.9643 57.2207-54.2791 60.5327-54.2791ZM200.486 31.8743C220.384 31.8743 236.443 15.7349 236.443-4.15007C236.443-24.0483 220.384-40.2549 200.486-40.2549C180.491-40.2549 164.394-24.0483 164.394-4.15007C164.394 15.7729 180.491 31.8743 200.486 31.8743ZM200.419 20.0755C186.881 20.0755 176.126 9.29831 176.126-4.24647C176.126-17.7169 186.91-28.4561 200.419-28.4561C213.889-28.4561 224.712-17.7461 224.712-4.24647C224.712 9.26911 213.889 20.0755 200.419 20.0755ZM200.41 5.21427C205.604 5.21427 209.779 1.00111 209.779-4.23049C209.779-9.50453 205.671-13.6373 200.41-13.6373C195.098-13.6373 191.155-9.57172 191.088-4.2597C191.021 1.00111 195.031 5.21427 200.41 5.21427ZM195.064-1.63211L206.466-5.1329L174.644-97.5489C173.493-100.998 170.658-102.508 166.511-102.508L146.683-102.508C143.333-102.508 140.685-99.8101 140.685-96.5113C140.685-93.1613 143.333-90.4761 146.683-90.4761L163.834-90.4761C164.43-90.4761 164.743-90.3241 164.942-89.7831ZM204.466-54.0551C207.085-53.7979 208.304-55.9114 207.79-58.421L203.761-77.9451C203.234-80.5059 201.281-81.7249 198.91-80.4255C196.996-79.3541 195.249-77.7683 194.001-75.8828C189.648-69.4971 191.572-60.4409 197.987-56.3455C199.792-55.0973 202.095-54.2452 204.466-54.0551ZM52.0219 5.2275C57.2535 5.2275 61.4287 1.01434 61.4287-4.21726C61.4287-9.4913 57.3207-13.624 52.0219-13.624C46.7478-13.624 42.805-9.55849 42.7378-4.24647C42.6707 1.01434 46.6807 5.2275 52.0219 5.2275ZM104.874 10.0185L122.6 10.0185C126.039 10.0185 127.705 9.09971 129.756 6.64078L155.267-23.8493L138.547-22.2109L122.059-2.92773C121.47-2.23749 121.021-2.00068 119.81-2.00068L104.874-2.00068C101.575-2.00068 98.8765 0.6845 98.8765 3.99651C98.8765 7.33328 101.575 10.0185 104.874 10.0185Z"/>
  </g>
  <g id="Semibold-L" transform="matrix(1 0 0 1 1919.14 1556)">
   <path class="SFSymbolsPreviewWireframe" d="M53.8406-0.682805L100.861-38.5726C118.821-53.0602 128.959-57.2921 138.974-57.2921C150.597-57.2921 155.859-50.6291 155.859-42.5662C155.859-33.8506 148.647-26.2322 134.237-26.2322C120.755-26.2322 109.942-32.0938 100.617-42.894L91.2558-35.7431C101.884-23.0758 116.252-15.5893 133.865-15.5893C154.289-15.5893 166.973-26.8741 166.973-42.2378C166.973-57.2116 157.568-67.7123 139.854-67.9165C127.195-68.0588 114.575-62.918 97.0703-48.8981L47.5317-9.03478ZM51.3099 30.3874C70.7354 30.3874 86.4119 14.6304 86.4119-4.77661C86.4119-24.2021 70.7354-40.021 51.3099-40.021C31.8039-40.021 16.084-24.2021 16.084-4.77661C16.084 14.6738 31.8039 30.3874 51.3099 30.3874ZM51.2479 19.8312C37.4693 19.8312 26.5782 8.89682 26.5782-4.85712C26.5782-18.5738 37.4879-29.4648 51.2479-29.4648C64.9646-29.4648 75.9177-18.5924 75.9177-4.85712C75.9177 8.87824 64.9646 19.8312 51.2479 19.8312ZM60.0471-54.3881L90.0388-54.3881C92.9673-54.3881 95.3695-56.7718 95.3695-59.7188C95.3695-62.6473 92.9239-65.0928 90.0388-65.0928L60.0471-65.0928C57.1434-65.0928 54.7164-62.6473 54.7164-59.7188C54.7164-56.7718 57.1001-54.3881 60.0471-54.3881ZM197.06 30.3874C216.485 30.3874 232.162 14.6304 232.162-4.77661C232.162-24.2021 216.485-40.021 197.06-40.021C177.554-40.021 161.834-24.2021 161.834-4.77661C161.834 14.6738 177.554 30.3874 197.06 30.3874ZM196.998 19.8312C183.219 19.8312 172.328 8.89682 172.328-4.85712C172.328-18.5738 183.238-29.4648 196.998-29.4648C210.714-29.4648 221.667-18.5924 221.667-4.85712C221.667 8.87824 210.714 19.8312 196.998 19.8312ZM196.973 3.89485C201.77 3.89485 205.638-0.0168217 205.638-4.85703C205.638-9.73429 201.832-13.5655 196.973-13.5655C192.052-13.5655 188.438-9.79623 188.376-4.8756C188.314-0.0168217 191.99 3.89485 196.973 3.89485ZM192.193-3.01875L202.303-6.25046L169.494-96.4269C168.374-99.5898 165.836-100.958 162.016-100.958L142.747-100.958C139.756-100.958 137.416-98.5556 137.416-95.6271C137.416-92.6367 139.756-90.253 142.747-90.253L159.725-90.253C160.3-90.253 160.597-90.117 160.802-89.5973ZM199.153-54.499C201.597-54.2577 202.742-56.244 202.26-58.5893L198.491-76.8628C197.99-79.2699 196.164-80.4147 193.937-79.1895C192.155-78.187 190.509-76.7018 189.345-74.9383C185.273-68.9606 187.08-60.4767 193.077-56.6463C194.76-55.4829 196.925-54.6784 199.153-54.499ZM51.1243 3.91333C55.9646 3.91333 59.8329 0.00165966 59.8329-4.83855C59.8329-9.71581 56.0265-13.5471 51.1243-13.5471C46.2471-13.5471 42.6327-9.77774 42.5707-4.85712C42.5088 0.00165966 46.1851 3.91333 51.1243 3.91333ZM103.085 8.49514L120.336 8.49514C123.547 8.49514 125.032 7.70868 127.068 5.3453L152.194-23.7291L137.188-22.5918L120.122-3.1128C119.522-2.4387 119.052-2.19113 117.852-2.19113L103.085-2.19113C100.156-2.19113 97.754 0.192563 97.754 3.13956C97.754 6.11144 100.156 8.49514 103.085 8.49514Z"/>
  </g>
  <g id="Medium-L" transform="matrix(1 0 0 1 1624.06 1556)">
   <path class="SFSymbolsPreviewWireframe" d="M52.7731-1.43299L99.4628-39.3427C117.114-53.6888 127.386-57.8728 137.346-57.8728C149.336-57.8728 154.769-51.0923 154.769-42.7416C154.769-33.8973 147.482-26.2083 132.819-26.2083C119.256-26.2083 108.184-32.1809 99.1206-42.7909L90.5645-36.221C101.152-23.6075 115.442-16.4994 132.552-16.4994C152.531-16.4994 164.836-27.6398 164.836-42.3039C164.836-57.0579 155.588-67.3509 138.061-67.5592C125.682-67.7095 113.092-62.5323 96.2213-48.9265L47.0255-9.05128ZM50.6535 29.2599C69.7206 29.2599 85.1071 13.7929 85.1071-5.25167C85.1071-24.3188 69.7206-39.8437 50.6535-39.8437C31.518-39.8437 16.084-24.3188 16.084-5.25167C16.084 13.8404 31.518 29.2599 50.6535 29.2599ZM50.5956 19.6459C36.6342 19.6459 25.64 8.59239 25.64-5.32014C25.64-19.2236 36.6447-30.2297 50.5956-30.2297C64.499-30.2297 75.5511-19.2341 75.5511-5.32014C75.5511 8.58188 64.499 19.6459 50.5956 19.6459ZM59.6788-54.4707L89.2397-54.4707C91.8874-54.4707 94.065-56.6258 94.065-59.296C94.065-61.9438 91.84-64.1688 89.2397-64.1688L59.6788-64.1688C57.056-64.1688 54.8535-61.9438 54.8535-59.296C54.8535-56.6258 57.0086-54.4707 59.6788-54.4707ZM194.462 29.2599C213.529 29.2599 228.915 13.7929 228.915-5.25167C228.915-24.3188 213.529-39.8437 194.462-39.8437C175.326-39.8437 159.892-24.3188 159.892-5.25167C159.892 13.8404 175.326 29.2599 194.462 29.2599ZM194.404 19.6459C180.442 19.6459 169.448 8.59239 169.448-5.32014C169.448-19.2236 180.453-30.2297 194.404-30.2297C208.307-30.2297 219.359-19.2341 219.359-5.32014C219.359 8.58188 208.307 19.6459 194.404 19.6459ZM194.367 2.89441C198.863 2.89441 202.498-0.788659 202.498-5.33209C202.498-9.9085 198.921-13.5111 194.367-13.5111C189.743-13.5111 186.377-9.96645 186.319-5.3426C186.261-0.788659 189.685 2.89441 194.367 2.89441ZM190.016-4.07016L199.147-7.09783L165.589-95.5761C164.492-98.5224 162.179-99.782 158.608-99.782L139.762-99.782C137.044-99.782 134.937-97.6044 134.937-94.9567C134.937-92.239 137.044-90.0839 139.762-90.0839L156.61-90.0839C157.169-90.0839 157.454-89.96 157.662-89.4564ZM195.125-54.8356C197.436-54.6063 198.525-56.4962 198.066-58.7169L194.495-76.0421C194.014-78.3327 192.285-79.4213 190.165-78.2523C188.484-77.302 186.914-75.8932 185.815-74.2221C181.956-68.5538 183.675-60.5039 189.354-56.8744C190.944-55.7753 193.006-55.007 195.125-54.8356ZM50.4438 2.91687C54.9872 2.91687 58.6229-0.766196 58.6229-5.30963C58.6229-9.88603 55.0452-13.4887 50.4438-13.4887C45.8674-13.4887 42.502-9.94399 42.444-5.32014C42.386-0.766196 45.8094 2.91687 50.4438 2.91687ZM101.728 7.34009L118.619 7.34009C121.657 7.34009 123.006 6.65395 125.029 4.36301L149.864-23.6379L136.158-22.8806L118.653-3.25313C118.045-2.59126 117.558-2.33553 116.367-2.33553L101.728-2.33553C99.0805-2.33553 96.903-0.180443 96.903 2.48979C96.903 5.185 99.0805 7.34009 101.728 7.34009Z"/>
  </g>
  <g id="Regular-L" transform="matrix(1 0 0 1 1329.46 1556)">
   <path class="SFSymbolsPreviewWireframe" d="M51.3807-2.4115L97.6388-40.3471C114.886-54.5087 125.336-58.6301 135.223-58.6301C147.69-58.6301 153.348-51.6966 153.348-42.9704C153.348-33.9583 145.961-26.1772 130.97-26.1772C117.3-26.1772 105.891-32.2946 97.1682-42.6564L89.6627-36.8444C100.198-24.301 114.386-17.6866 130.839-17.6866C150.238-17.6866 162.049-28.6386 162.049-42.39C162.049-56.8575 153.005-66.8794 135.723-67.093C123.71-67.2539 111.157-62.0291 95.1138-48.9636L46.3652-9.07281ZM49.7974 27.7893C68.3969 27.7893 83.4053 12.7006 83.4053-5.87132C83.4053-24.4709 68.3969-39.6124 49.7974-39.6124C31.1451-39.6124 16.084-24.4709 16.084-5.87132C16.084 12.7533 31.1451 27.7893 49.7974 27.7893ZM49.7446 19.4043C35.5448 19.4043 24.4163 8.19531 24.4163-5.92408C24.4163-20.0711 35.5448-31.2273 49.7446-31.2273C63.8917-31.2273 75.073-20.0711 75.073-5.92408C75.073 8.19531 63.8917 19.4043 49.7446 19.4043ZM59.1985-54.5785L88.1973-54.5785C90.4789-54.5785 92.3635-56.4354 92.3635-58.7447C92.3635-61.0262 90.4261-62.9636 88.1973-62.9636L59.1985-62.9636C56.942-62.9636 55.0323-61.0262 55.0323-58.7447C55.0323-56.4354 56.8892-54.5785 59.1985-54.5785ZM191.073 27.7893C209.672 27.7893 224.681 12.7006 224.681-5.87132C224.681-24.4709 209.672-39.6124 191.073-39.6124C172.42-39.6124 157.359-24.4709 157.359-5.87132C157.359 12.7533 172.42 27.7893 191.073 27.7893ZM191.02 19.4043C176.82 19.4043 165.692 8.19531 165.692-5.92408C165.692-20.0711 176.82-31.2273 191.02-31.2273C205.167-31.2273 216.348-20.0711 216.348-5.92408C216.348 8.19531 205.167 19.4043 191.02 19.4043ZM190.967 1.58949C195.071 1.58949 198.403-1.7954 198.403-5.95174C198.403-10.1357 195.124-13.4402 190.967-13.4402C186.731-13.4402 183.69-10.1885 183.637-5.95174C183.584-1.7954 186.678 1.58949 190.967 1.58949ZM187.176-5.44156L195.03-8.2031L160.495-94.4664C159.43-97.1301 157.409-98.2483 154.163-98.2483L135.869-98.2483C133.507-98.2483 131.703-96.3637 131.703-94.0822C131.703-91.7202 133.507-89.8633 135.869-89.8633L152.547-89.8633C153.085-89.8633 153.354-89.7552 153.567-89.2727ZM189.87-55.2747C192.009-55.061 193.024-56.8252 192.597-58.8833L189.282-74.9716C188.828-77.1102 187.224-78.1255 185.246-77.0298C183.696-76.1477 182.226-74.8385 181.211-73.2879C177.63-68.0232 179.233-60.5394 184.498-57.172C185.968-56.1567 187.893-55.4355 189.87-55.2747ZM49.5561 1.61715C53.7125 1.61715 57.0446-1.76775 57.0446-5.92408C57.0446-10.1081 53.7652-13.4125 49.5561-13.4125C45.3721-13.4125 42.3315-10.1608 42.2787-5.92408C42.226-1.76775 45.3194 1.61715 49.5561 1.61715ZM99.959 5.8335L116.379 5.8335C119.191 5.8335 120.362 5.27821 122.37 3.08177L146.825-23.519L134.814-23.2573L116.737-3.43616C116.118-2.79025 115.611-2.52389 114.43-2.52389L99.959-2.52389C97.6774-2.52389 95.7929-0.666974 95.7929 1.64225C95.7929 3.97659 97.6774 5.8335 99.959 5.8335Z"/>
  </g>
  <g id="Light-L" transform="matrix(1 0 0 1 1034.7 1556)">
   <path class="SFSymbolsPreviewWireframe" d="M51.2089-3.76655L96.0356-41.7976C112.92-56.131 123.866-60.0997 133.638-60.0997C146.163-60.0997 152.451-53.3761 152.451-43.7338C152.451-34.6072 144.74-26.0626 129.004-26.0626C114.171-26.0626 102.99-32.9053 94.6299-43.5916L88.9375-39.0964C99.4725-25.9996 112.63-19.5379 128.95-19.5379C147.528-19.5379 159.11-30.2227 159.11-43.3634C159.11-57.0484 150.428-66.3832 133.929-66.5777C122.451-66.7386 109.726-61.5711 94.5985-48.8682L47.3386-8.92013ZM49.5874 27.4076C68.0916 27.4076 83.0236 12.3952 83.0236-6.06217C83.0236-24.5663 68.0916-39.6124 49.5874-39.6124C31.0496-39.6124 16.084-24.5663 16.084-6.06217C16.084 12.4289 31.0496 27.4076 49.5874 27.4076ZM49.5538 20.9502C34.3234 20.9502 22.5077 9.05414 22.5077-6.09585C22.5077-21.2926 34.3234-33.1549 49.5538-33.1549C64.7505-33.1549 76.5998-21.2926 76.5998-6.09585C76.5998 9.05414 64.7505 20.9502 49.5538 20.9502ZM58.206-55.361L87.0713-55.361C88.8185-55.361 90.2832-56.779 90.2832-58.5729C90.2832-60.3201 88.7848-61.8185 87.0713-61.8185L58.206-61.8185C56.4458-61.8185 54.9942-60.3201 54.9942-58.5729C54.9942-56.779 56.4121-55.361 58.206-55.361ZM187.351 27.4076C205.855 27.4076 220.787 12.3952 220.787-6.06217C220.787-24.5663 205.855-39.6124 187.351-39.6124C168.813-39.6124 153.848-24.5663 153.848-6.06217C153.848 12.4289 168.813 27.4076 187.351 27.4076ZM187.318 20.9502C172.087 20.9502 160.271 9.05414 160.271-6.09585C160.271-21.2926 172.087-33.1549 187.318-33.1549C202.514-33.1549 214.364-21.2926 214.364-6.09585C214.364 9.05414 202.514 20.9502 187.318 20.9502ZM187.284 0.387118C190.834 0.387118 193.746-2.55881 193.746-6.14259C193.746-9.77311 190.868-12.6386 187.284-12.6386C183.62-12.6386 180.923-9.80679 180.889-6.14259C180.855-2.55881 183.586 0.387118 187.284 0.387118ZM184.427-5.61333L190.488-7.78323L155.762-94.6382C154.849-96.9201 153.21-97.8666 150.498-97.8666L131.957-97.8666C130.129-97.8666 128.745-96.4019 128.745-94.6547C128.745-92.8271 130.129-91.4092 131.957-91.4092L149.322-91.4092C149.898-91.4092 150.186-91.282 150.38-90.7995ZM184.431-56.0381C186.436-55.8435 187.375-57.4932 186.986-59.4177L183.881-74.3991C183.445-76.4041 181.957-77.343 180.113-76.3236C178.657-75.4988 177.283-74.285 176.344-72.8299C173.011-67.9277 174.5-60.9402 179.402-57.8018C180.777-56.8629 182.587-56.1989 184.431-56.0381ZM49.3462 0.43386C52.93 0.43386 55.8422-2.51207 55.8422-6.09585C55.8422-9.72637 52.9636-12.5919 49.3462-12.5919C45.7157-12.5919 43.0185-9.76005 42.9849-6.09585C42.9512-2.51207 45.682 0.43386 49.3462 0.43386ZM99.291 3.61961L114.833 3.61961C117.588 3.61961 118.568 3.23609 120.519 1.07781L143.924-24.5114L134.279-23.7917L115.992-3.72244C115.336-3.01928 114.866-2.79108 113.647-2.79108L99.291-2.79108C97.5439-2.79108 96.0792-1.37313 96.0792 0.420796C96.0792 2.20166 97.5439 3.61961 99.291 3.61961Z"/>
  </g>
  <g id="Thin-L" transform="matrix(1 0 0 1 740.561 1556)">
   <path class="SFSymbolsPreviewWireframe" d="M50.9817-5.55872L93.9153-43.716C110.32-58.2765 121.923-62.0433 131.543-62.0433C144.144-62.0433 151.264-55.5973 151.264-44.7435C151.264-35.4654 143.124-25.9112 126.404-25.9112C110.031-25.9112 99.1533-33.713 91.2727-44.8284L87.9783-42.075C98.5133-28.2461 110.308-21.9863 126.451-21.9863C143.943-21.9863 155.223-32.3177 155.223-44.6507C155.223-57.3008 147.021-65.7269 131.556-65.8962C120.785-66.057 107.832-60.9653 93.917-48.742L48.6259-8.7182ZM49.3098 26.9028C67.6877 26.9028 82.5187 11.9914 82.5187-6.31459C82.5187-24.6925 67.6877-39.6124 49.3098-39.6124C30.9234-39.6124 16.084-24.6925 16.084-6.31459C16.084 11.9998 30.9234 26.9028 49.3098 26.9028ZM49.3014 22.9948C32.7079 22.9948 19.9836 10.19 19.9836-6.32302C19.9836-22.9081 32.7079-35.7044 49.3014-35.7044C65.8864-35.7044 78.6192-22.9081 78.6192-6.32302C78.6192 10.19 65.8864 22.9948 49.3014 22.9948ZM56.8935-56.3959L85.582-56.3959C86.6224-56.3959 87.5318-57.2333 87.5318-58.3457C87.5318-59.3861 86.614-60.3039 85.582-60.3039L56.8935-60.3039C55.7895-60.3039 54.9437-59.3861 54.9437-58.3457C54.9437-57.2333 55.7811-56.3959 56.8935-56.3959ZM182.429 26.9028C200.807 26.9028 215.638 11.9914 215.638-6.31459C215.638-24.6925 200.807-39.6124 182.429-39.6124C164.043-39.6124 149.203-24.6925 149.203-6.31459C149.203 11.9998 164.043 26.9028 182.429 26.9028ZM182.421 22.9948C165.827 22.9948 153.103 10.19 153.103-6.32302C153.103-22.9081 165.827-35.7044 182.421-35.7044C199.006-35.7044 211.738-22.9081 211.738-6.32302C211.738 10.19 199.006 22.9948 182.421 22.9948ZM182.412-1.20312C185.23-1.20312 187.587-3.56849 187.587-6.39501C187.587-9.29351 185.239-11.5785 182.412-11.5785C179.505-11.5785 177.262-9.30195 177.254-6.39501C177.246-3.56849 179.497-1.20312 182.412-1.20312ZM180.792-5.84051L184.481-7.22791L149.502-94.8654C148.791-96.6425 147.657-97.3618 145.652-97.3618L126.782-97.3618C125.662-97.3618 124.833-96.4524 124.833-95.412C124.833-94.2911 125.662-93.4538 126.782-93.4538L145.056-93.4538C145.682-93.4538 145.995-93.3014 146.165-92.8188ZM177.237-57.0477C179.066-56.8785 179.903-58.3766 179.565-60.1245L176.738-73.6418C176.327-75.4701 174.99-76.3081 173.322-75.3897C171.994-74.6406 170.745-73.553 169.907-72.2241C166.902-67.8015 168.24-61.4703 172.662-58.6348C173.911-57.7968 175.57-57.2086 177.237-57.0477ZM49.0685-1.13113C51.8951-1.13113 54.252-3.4965 54.252-6.32302C54.252-9.22153 51.9035-11.5065 49.0685-11.5065C46.17-11.5065 43.9273-9.22997 43.9188-6.32302C43.9104-3.4965 46.1616-1.13113 49.0685-1.13113ZM98.4076 0.691558L112.789 0.691558C115.468 0.691558 116.196 0.535213 118.071-1.57258L140.087-25.824L133.572-24.4985L115.008-4.10107C114.301-3.32218 113.882-3.14447 112.612-3.14447L98.4076-3.14447C97.3672-3.14447 96.4578-2.30708 96.4578-1.19468C96.4578-0.145833 97.3672 0.691558 98.4076 0.691558Z"/>
  </g>
  <g id="Ultralight-L" transform="matrix(1 0 0 1 445.169 1556)">
   <path class="SFSymbolsPreviewWireframe" d="M50.8654-6.47666L92.8293-44.6986C108.989-59.3754 120.927-63.0388 130.47-63.0388C143.11-63.0388 150.657-56.7351 150.657-45.2606C150.657-35.905 142.297-25.8336 125.073-25.8336C107.911-25.8336 97.1882-34.1267 89.5532-45.4619L87.487-43.6006C98.022-29.3968 109.119-23.2404 125.171-23.2404C142.107-23.2404 153.232-33.3908 153.232-45.3101C153.232-57.4301 145.275-65.3908 130.34-65.5471C119.931-65.708 106.863-60.655 93.5679-48.6774L49.2853-8.61477ZM49.1676 26.6442C67.4809 26.6442 82.2601 11.7845 82.2601-6.44388C82.2601-24.7572 67.4809-39.6124 49.1676-39.6124C30.8588-39.6124 16.084-24.7572 16.084-6.44388C16.084 11.78 30.8588 26.6442 49.1676 26.6442ZM49.1721 24.042C31.8804 24.042 18.6907 10.7718 18.6907-6.43938C18.6907-23.7355 31.8804-37.0102 49.1721-37.0102C66.4682-37.0102 79.6534-23.7355 79.6534-6.43938C79.6534 10.7718 66.4682 24.042 49.1721 24.042ZM56.2212-56.926L84.8192-56.926C85.4976-56.926 86.1226-57.466 86.1226-58.2294C86.1226-58.9078 85.5021-59.5282 84.8192-59.5282L56.2212-59.5282C55.4534-59.5282 54.9178-58.9078 54.9178-58.2294C54.9178-57.466 55.4579-56.926 56.2212-56.926ZM179.908 26.6442C198.221 26.6442 213.001 11.7845 213.001-6.44388C213.001-24.7572 198.221-39.6124 179.908-39.6124C161.599-39.6124 146.824-24.7572 146.824-6.44388C146.824 11.78 161.599 26.6442 179.908 26.6442ZM179.912 24.042C162.621 24.042 149.431 10.7718 149.431-6.43938C149.431-23.7355 162.621-37.0102 179.912-37.0102C197.209-37.0102 210.394-23.7355 210.394-6.43938C210.394 10.7718 197.209 24.042 179.912 24.042ZM179.917-2.01763C182.36-2.01763 184.433-4.08564 184.433-6.5243C184.433-9.04787 182.356-11.0355 179.917-11.0355C177.398-11.0355 175.388-9.04338 175.392-6.5243C175.397-4.08564 177.402-2.01763 179.917-2.01763ZM178.931-5.95686L181.404-6.94347L146.296-94.9817C145.688-96.5003 144.813-97.1032 143.17-97.1032L124.132-97.1032C123.373-97.1032 122.829-96.4782 122.829-95.7998C122.829-95.041 123.373-94.501 124.132-94.501L142.871-94.501C143.523-94.501 143.849-94.3357 144.006-93.8531ZM173.553-57.5649C175.29-57.4085 176.077-58.8291 175.764-60.4865L173.079-73.254C172.681-74.9918 171.422-75.778 169.845-74.9113C168.58-74.201 167.397-73.178 166.61-71.9138C163.774-67.7369 165.033-61.7418 169.21-59.0614C170.394-58.2752 171.976-57.7257 173.553-57.5649ZM48.9263-1.93271C51.365-1.93271 53.4375-4.00072 53.4375-6.43938C53.4375-8.96296 51.3605-10.9505 48.9263-10.9505C46.4027-10.9505 44.3927-8.95846 44.3972-6.43938C44.4017-4.00072 46.4072-1.93271 48.9263-1.93271ZM97.9551-0.808175L111.741-0.808175C114.382-0.808175 114.98-0.848162 116.816-2.93009L138.122-26.4963L133.21-24.8605L114.504-4.295C113.771-3.47732 113.378-3.32547 112.082-3.32547L97.9551-3.32547C97.2767-3.32547 96.6517-2.78544 96.6517-2.02212C96.6517-1.34821 97.2767-0.808175 97.9551-0.808175Z"/>
  </g>
  <g id="Black-M" transform="matrix(1 0 0 1 2829.3 1126)">
   <path class="SFSymbolsPreviewWireframe" d="M47.3105-4.95103L85.0052-34.2328C100.436-46.2651 107.739-49.746 115.757-49.746C122.839-49.746 126.22-45.2774 126.22-40.2441C126.22-34.1345 120.924-28.3465 110.841-28.3465C100.433-28.3465 93.5029-32.5464 85.0193-42.0322L74.1159-33.8617C82.5633-23.5744 93.7574-15.8211 110.025-15.8211C127.929-15.8211 139.681-25.2381 139.681-40.6405C139.681-53.1389 131.69-62.1416 117.24-62.2717C106.126-62.3392 96.1394-58.5688 79.5277-45.6359L39.8384-14.7959ZM43.1583 21.4506C60.0747 21.4506 73.7304 7.73256 73.7304-9.18418C73.7304-26.1006 60.0747-39.8812 43.1583-39.8812C26.1221-39.8812 12.4609-26.1006 12.4609-9.18418C12.4609 7.73805 26.1221 21.4506 43.1583 21.4506ZM43.0957 8.93615C33.0384 8.93615 24.9127 0.86236 24.9127-9.30387C24.9127-19.2985 33.0955-27.3668 43.0957-27.3668C53.0903-27.3668 61.2786-19.3556 61.2786-9.30387C61.2786 0.805264 53.0903 8.93615 43.0957 8.93615ZM48.1344-49.9009L73.6078-49.9009C77.1823-49.9009 80.0906-52.8095 80.0906-56.3837C80.0906-59.9582 77.1768-62.872 73.6078-62.872L48.1344-62.872C44.5656-62.872 41.6515-59.9582 41.6515-56.3837C41.6515-52.8095 44.5601-49.9009 48.1344-49.9009ZM165.169 21.4506C182.086 21.4506 195.741 7.73256 195.741-9.18418C195.741-26.1006 182.086-39.8812 165.169-39.8812C148.133-39.8812 134.472-26.1006 134.472-9.18418C134.472 7.73805 148.133 21.4506 165.169 21.4506ZM165.107 8.93615C155.049 8.93615 146.924 0.86236 146.924-9.30387C146.924-19.2985 155.107-27.3668 165.107-27.3668C175.101-27.3668 183.29-19.3556 183.29-9.30387C183.29 0.805264 175.101 8.93615 165.107 8.93615ZM165.158-0.0266009C170.28-0.0266009 174.367-4.11898 174.367-9.24649C174.367-14.4308 170.343-18.4609 165.158-18.4609C159.969-18.4609 155.966-14.4934 155.903-9.30358C155.841-4.11898 159.906-0.0266009 165.158-0.0266009ZM159.501-4.762L171.91-8.14545L150.395-87.208C149.453-90.6765 146.426-92.2521 142.332-92.2521L125.073-92.2521C121.493-92.2521 118.59-89.3438 118.59-85.7693C118.59-82.1895 121.493-79.2809 125.073-79.2809L139.154-79.2809C139.698-79.2809 139.999-79.1047 140.129-78.6167ZM173.785-48.6348C176.337-48.3905 177.495-50.4014 177.007-52.8331L173.115-71.6381C172.627-74.075 170.741-75.2338 168.485-74.0127C166.605-72.9787 164.957-71.4561 163.742-69.6324C159.543-63.4853 161.372-54.7819 167.576-50.8277C169.338-49.6117 171.53-48.8165 173.785-48.6348ZM43.1426-0.0268839C48.2701-0.0268839 52.357-4.11927 52.357-9.24677C52.357-14.4311 48.3327-18.4612 43.1426-18.4612C37.9583-18.4612 33.9557-14.4937 33.8931-9.30387C33.8305-4.11927 37.8957-0.0268839 43.1426-0.0268839ZM86.8238 4.01236L101.8 4.01236C105.186 4.01236 106.995 2.92999 108.616 0.728126L129.27-27.1405L111.563-24.0902L100.594-9.70126C100.159-9.09468 99.8931-8.95909 98.9072-8.95909L86.8238-8.95909C83.2493-8.95909 80.341-6.0505 80.341-2.47625C80.341 1.10377 83.2493 4.01236 86.8238 4.01236Z"/>
  </g>
  <g id="Heavy-M" transform="matrix(1 0 0 1 2534.88 1126)">
   <path class="SFSymbolsPreviewWireframe" d="M45.5627-5.9141L83.0118-35.2087C98.0029-46.9675 105.426-50.401 113.375-50.401C121.058-50.401 124.591-45.6911 124.591-40.3733C124.591-34.0733 119.237-28.3312 108.894-28.3312C98.599-28.3312 91.1874-32.5609 83.0623-41.6589L73.1159-34.1769C81.496-24.0985 92.781-16.945 108.236-16.945C125.571-16.945 136.74-26.178 136.74-40.5418C136.74-52.841 128.933-61.6439 114.628-61.7849C103.869-61.8659 93.9668-58.0224 78.219-45.704L38.783-14.8563ZM42.1061 19.6477C58.4438 19.6477 71.6311 6.39807 71.6311-9.93739C71.6311-26.2751 58.4438-39.5848 42.1061-39.5848C25.6647-39.5848 12.4609-26.2751 12.4609-9.93739C12.4609 6.41448 25.6647 19.6477 42.1061 19.6477ZM42.046 8.29435C31.9046 8.29435 23.7543 0.168934 23.7543-10.041C23.7543-20.1224 31.9482-28.2314 42.046-28.2314C52.1274-28.2314 60.3378-20.166 60.3378-10.041C60.3378 0.125312 52.1274 8.29435 42.046 8.29435ZM47.7319-49.8709L72.5137-49.8709C75.7337-49.8709 78.3567-52.4917 78.3567-55.7139C78.3567-58.9339 75.7173-61.5733 72.5137-61.5733L47.7319-61.5733C44.5261-61.5733 41.889-58.9339 41.889-55.7139C41.889-52.4917 44.5097-49.8709 47.7319-49.8709ZM161.625 19.6477C177.963 19.6477 191.15 6.39807 191.15-9.93739C191.15-26.2751 177.963-39.5848 161.625-39.5848C145.184-39.5848 131.98-26.2751 131.98-9.93739C131.98 6.41448 145.184 19.6477 161.625 19.6477ZM161.565 8.29435C151.424 8.29435 143.274 0.168934 143.274-10.041C143.274-20.1224 151.468-28.2314 161.565-28.2314C171.647-28.2314 179.857-20.166 179.857-10.041C179.857 0.125312 171.647 8.29435 161.565 8.29435ZM161.593-1.44083C166.331-1.44083 170.119-5.24534 170.119-9.99969C170.119-14.7999 166.391-18.5421 161.593-18.5421C156.776-18.5421 153.116-14.86 153.056-10.0433C152.996-5.24534 156.716-1.44083 161.593-1.44083ZM156.452-6.48283L167.609-9.65227L144.883-85.7488C143.948-88.9371 141.215-90.3684 137.422-90.3684L120.924-90.3684C117.686-90.3684 115.081-87.7454 115.081-84.5255C115.081-81.2868 117.686-78.6661 120.924-78.6661L134.639-78.6661C135.148-78.6661 135.424-78.5143 135.565-78.0532ZM168.219-49.0335C170.577-48.8053 171.659-50.6795 171.202-52.9316L167.595-70.3891C167.136-72.6598 165.386-73.7411 163.284-72.5975C161.55-71.6386 160.01-70.2231 158.885-68.5335C154.99-62.8257 156.696-54.7413 162.447-51.0737C164.074-49.9488 166.117-49.2018 168.219-49.0335ZM42.05-1.43856C46.8044-1.43856 50.5925-5.24306 50.5925-9.99742C50.5925-14.7977 46.8644-18.5399 42.05-18.5399C37.2498-18.5399 33.5896-14.8577 33.5296-10.041C33.4695-5.24306 37.1897-1.43856 42.05-1.43856ZM84.6997 2.55694L99.2618 2.55694C102.37 2.55694 103.993 1.60538 105.606-0.483575L125.998-26.7749L109.955-24.4582L98.298-9.87436C97.8573-9.30054 97.5566-9.14311 96.5926-9.14311L84.6997-9.14311C81.4797-9.14311 78.8567-6.52239 78.8567-3.30015C78.8567-0.0637779 81.4797 2.55694 84.6997 2.55694Z"/>
  </g>
  <g id="Bold-M" transform="matrix(1 0 0 1 2240.74 1126)">
   <path class="SFSymbolsPreviewWireframe" d="M43.6076-6.99143L80.7818-36.3003C95.2815-47.7533 102.84-51.1338 110.711-51.1338C119.065-51.1338 122.768-46.1538 122.768-40.5179C122.768-34.0047 117.351-28.314 106.715-28.314C96.5472-28.314 88.5971-32.577 80.873-41.2413L71.9973-34.5295C80.302-24.6846 91.6888-18.2022 106.234-18.2022C122.934-18.2022 133.451-27.2293 133.451-40.4314C133.451-52.5079 125.849-61.0872 111.706-61.2404C101.344-61.3365 91.5365-57.4111 76.755-45.7801L37.6024-14.9239ZM40.929 17.6309C56.6194 17.6309 69.2827 4.90526 69.2827-10.78C69.2827-26.4703 56.6194-39.2532 40.929-39.2532C25.1529-39.2532 12.4609-26.4703 12.4609-10.78C12.4609 4.93388 25.1529 17.6309 40.929 17.6309ZM40.8718 7.5764C30.6363 7.5764 22.4583-0.606763 22.4583-10.8657C22.4583-21.0441 30.6648-29.1986 40.8718-29.1986C51.0502-29.1986 59.2854-21.0726 59.2854-10.8657C59.2854-0.635312 51.0502 7.5764 40.8718 7.5764ZM47.2817-49.8375L71.2898-49.8375C74.1131-49.8375 76.417-52.1362 76.417-54.9646C76.417-57.788 74.0845-60.1204 71.2898-60.1204L47.2817-60.1204C44.4819-60.1204 42.1546-57.788 42.1546-54.9646C42.1546-52.1362 44.4533-49.8375 47.2817-49.8375ZM157.661 17.6309C173.351 17.6309 186.015 4.90526 186.015-10.78C186.015-26.4703 173.351-39.2532 157.661-39.2532C141.885-39.2532 129.193-26.4703 129.193-10.78C129.193 4.93388 141.885 17.6309 157.661 17.6309ZM157.604 7.5764C147.368 7.5764 139.19-0.606763 139.19-10.8657C139.19-21.0441 147.397-29.1986 157.604-29.1986C167.782-29.1986 176.017-21.0726 176.017-10.8657C176.017-0.635312 167.782 7.5764 157.604 7.5764ZM157.604-3.02286C161.912-3.02286 165.366-6.50533 165.366-10.8423C165.366-15.2129 161.969-18.633 157.604-18.633C153.205-18.633 149.928-15.27 149.87-10.8708C149.813-6.50533 153.147-3.02286 157.604-3.02286ZM153.04-8.40783L162.798-11.3379L138.717-84.1165C137.79-86.9913 135.385-88.2612 131.928-88.2612L116.283-88.2612C113.426-88.2612 111.156-85.9574 111.156-83.1341C111.156-80.277 113.426-77.9783 116.283-77.9783L129.588-77.9783C130.058-77.9783 130.307-77.8538 130.46-77.4228ZM161.993-49.4795C164.135-49.2692 165.129-50.9907 164.709-53.0418L161.419-68.9919C160.993-71.0768 159.396-72.0713 157.465-71.0145C155.896-70.1395 154.476-68.8439 153.453-67.3042C149.896-62.0879 151.464-54.6958 156.709-51.349C158.186-50.326 160.061-49.6327 161.993-49.4795ZM40.8277-3.01772C45.1647-3.01772 48.6185-6.50019 48.6185-10.8371C48.6185-15.2077 45.2218-18.6279 40.8277-18.6279C36.4571-18.6279 33.1801-15.2649 33.1229-10.8657C33.0657-6.50019 36.4-3.01772 40.8277-3.01772ZM82.3235 0.928839L96.4224 0.928839C99.2209 0.928839 100.634 0.123612 102.238-1.83904L122.337-26.3659L108.156-24.8699L95.7295-10.068C95.2831-9.53081 94.9429-9.34896 94.0032-9.34896L82.3235-9.34896C79.5001-9.34896 77.1963-7.05028 77.1963-4.2218C77.1963-1.36984 79.5001 0.928839 82.3235 0.928839Z"/>
  </g>
  <g id="Semibold-M" transform="matrix(1 0 0 1 1945.8 1126)">
   <path class="SFSymbolsPreviewWireframe" d="M42.2597-7.73414L79.2445-37.0529C93.4054-48.295 101.056-51.6389 108.874-51.6389C117.692-51.6389 121.511-46.4728 121.511-40.6175C121.511-33.9574 116.051-28.3022 105.213-28.3022C95.1327-28.3022 86.8114-32.5882 79.3638-40.9535L71.2262-34.7726C79.4789-25.0887 90.9359-19.0689 104.854-19.0689C121.116-19.0689 131.183-27.9541 131.183-40.3553C131.183-52.2782 123.723-60.7034 109.692-60.865C99.6029-60.9715 89.8611-56.9896 75.7457-45.8326L36.7885-14.9704ZM40.1176 16.2406C55.3616 16.2406 67.6638 3.87612 67.6638-11.3608C67.6638-26.6049 55.3616-39.0245 40.1176-39.0245C24.8002-39.0245 12.4609-26.6049 12.4609-11.3608C12.4609 3.91316 24.8002 16.2406 40.1176 16.2406ZM40.0624 7.08145C29.7619 7.08145 21.5649-1.14152 21.5649-11.4342C21.5649-21.6795 29.78-29.8654 40.0624-29.8654C50.3076-29.8654 58.5598-21.6976 58.5598-11.4342C58.5598-1.15968 50.3076 7.08145 40.0624 7.08145ZM46.9714-49.8144L70.4461-49.8144C72.996-49.8144 75.0797-51.8911 75.0797-54.4481C75.0797-56.998 72.9589-59.1188 70.4461-59.1188L46.9714-59.1188C44.4514-59.1188 42.3377-56.998 42.3377-54.4481C42.3377-51.8911 44.4144-49.8144 46.9714-49.8144ZM154.928 16.2406C170.172 16.2406 182.474 3.87612 182.474-11.3608C182.474-26.6049 170.172-39.0245 154.928-39.0245C139.611-39.0245 127.271-26.6049 127.271-11.3608C127.271 3.91316 139.611 16.2406 154.928 16.2406ZM154.873 7.08145C144.572 7.08145 136.375-1.14152 136.375-11.4342C136.375-21.6795 144.591-29.8654 154.873-29.8654C165.118-29.8654 173.37-21.6976 173.37-11.4342C173.37-1.15968 165.118 7.08145 154.873 7.08145ZM154.854-4.11349C158.866-4.11349 162.09-7.37396 162.09-11.4231C162.09-15.4975 158.921-18.6957 154.854-18.6957C150.743-18.6957 147.73-15.5527 147.674-11.4413C147.619-7.37396 150.687-4.11349 154.854-4.11349ZM150.688-9.73491L159.482-12.4999L134.467-82.9912C133.545-85.6499 131.366-86.8085 128.141-86.8085L113.084-86.8085C110.49-86.8085 108.45-84.7248 108.45-82.1748C108.45-79.5808 110.49-77.5041 113.084-77.5041L126.106-77.5041C126.549-77.5041 126.779-77.3984 126.941-76.9883ZM157.7-49.787C159.693-49.5891 160.628-51.2052 160.232-53.1178L157.162-68.0287C156.759-69.9855 155.267-70.9201 153.453-69.9232C151.999-69.1061 150.661-67.893 149.708-66.4567C146.384-61.5793 147.858-54.6645 152.753-51.5388C154.127-50.586 155.886-49.9298 157.7-49.787ZM39.9851-4.10639C44.0343-4.10639 47.2577-7.36685 47.2577-11.416C47.2577-15.4904 44.0895-18.6886 39.9851-18.6886C35.9107-18.6886 32.8977-15.5456 32.8425-11.4342C32.7873-7.36685 35.8555-4.10639 39.9851-4.10639ZM80.6853-0.193563L94.4649-0.193563C97.0497-0.193563 98.318-0.897911 99.9166-2.77348L119.814-26.084L106.917-25.1537L93.9588-10.2015C93.5084-9.68957 93.141-9.49087 92.2182-9.49087L80.6853-9.49087C78.1354-9.49087 76.0516-7.4142 76.0516-4.85719C76.0516-2.27024 78.1354-0.193563 80.6853-0.193563Z"/>
  </g>
  <g id="Medium-M" transform="matrix(1 0 0 1 1650.43 1126)">
   <path class="SFSymbolsPreviewWireframe" d="M41.2377-8.29729L78.0789-37.6235C91.9828-48.7057 99.7042-52.0219 107.482-52.0219C116.65-52.0219 120.559-46.7147 120.559-40.6931C120.559-33.9216 115.065-28.2932 104.074-28.2932C94.0602-28.2932 85.4574-32.5966 78.2194-40.7352L70.6414-34.9569C78.8547-25.3951 90.365-19.7261 103.808-19.7261C119.738-19.7261 129.464-28.5037 129.464-40.2976C129.464-52.1041 122.11-60.4124 108.164-60.5804C98.2829-60.6947 88.5907-56.6701 74.9805-45.8724L36.1714-15.0058ZM39.5023 15.1864C54.4079 15.1864 66.4362 3.09579 66.4362-11.8012C66.4362-26.7069 54.4079-38.8512 39.5023-38.8512C24.5327-38.8512 12.4609-26.7069 12.4609-11.8012C12.4609 3.13921 24.5327 15.1864 39.5023 15.1864ZM39.4486 6.70616C29.0989 6.70616 20.8875-1.547 20.8875-11.8652C20.8875-22.1612 29.1092-30.371 39.4486-30.371C49.7446-30.371 58.0097-22.1715 58.0097-11.8652C58.0097-1.55728 49.7446 6.70616 39.4486 6.70616ZM46.736-49.7969L69.8063-49.7969C72.1489-49.7969 74.0658-51.7053 74.0658-54.0564C74.0658-56.399 72.1054-58.3594 69.8063-58.3594L46.736-58.3594C44.4283-58.3594 42.4765-56.399 42.4765-54.0564C42.4765-51.7053 44.3849-49.7969 46.736-49.7969ZM152.856 15.1864C167.761 15.1864 179.79 3.09579 179.79-11.8012C179.79-26.7069 167.761-38.8512 152.856-38.8512C137.886-38.8512 125.815-26.7069 125.815-11.8012C125.815 3.13921 137.886 15.1864 152.856 15.1864ZM152.802 6.70616C142.452 6.70616 134.241-1.547 134.241-11.8652C134.241-22.1612 142.463-30.371 152.802-30.371C163.098-30.371 171.363-22.1715 171.363-11.8652C171.363-1.55728 163.098 6.70616 152.802 6.70616ZM152.769-4.94046C156.557-4.94046 159.605-8.03259 159.605-11.8636C159.605-15.7134 156.61-18.7432 152.769-18.7432C148.876-18.7432 146.063-15.7671 146.009-11.8738C145.956-8.03259 148.822-4.94046 152.769-4.94046ZM148.905-10.7412L156.967-13.381L131.243-82.1379C130.326-84.6328 128.319-85.707 125.27-85.707L110.658-85.707C108.263-85.707 106.398-83.7901 106.398-81.4475C106.398-79.0529 108.263-77.1446 110.658-77.1446L123.466-77.1446C123.888-77.1446 124.104-77.0531 124.272-76.6587ZM154.446-50.0202C156.326-49.8316 157.215-51.3678 156.838-53.1754L153.933-67.2983C153.548-69.158 152.136-70.0472 150.411-69.0957C149.043-68.3224 147.768-67.172 146.869-65.8141C143.722-61.1936 145.123-54.6407 149.754-51.6827C151.05-50.7831 152.721-50.1551 154.446-50.0202ZM39.3462-4.93186C43.1772-4.93186 46.2259-8.02399 46.2259-11.855C46.2259-15.7048 43.2309-18.7346 39.3462-18.7346C35.4964-18.7346 32.6837-15.7585 32.63-11.8652C32.5763-8.02399 35.4427-4.93186 39.3462-4.93186ZM79.4432-1.04461L92.9807-1.04461C95.4034-1.04461 96.5622-1.67247 98.1564-3.48202L117.9-25.8702L105.976-25.3689L92.6161-10.3027C92.1628-9.80994 91.7747-9.59848 90.8647-9.59848L79.4432-9.59848C77.1007-9.59848 75.1837-7.69014 75.1837-5.33896C75.1837-2.95295 77.1007-1.04461 79.4432-1.04461Z"/>
  </g>
  <g id="Regular-M" transform="matrix(1 0 0 1 1355.47 1126)">
   <path class="SFSymbolsPreviewWireframe" d="M39.9047-9.03184L76.5584-38.3678C90.1273-49.2415 97.9405-52.5215 105.665-52.5215C115.292-52.5215 119.316-47.0302 119.316-40.7917C119.316-33.8748 113.778-28.2815 102.588-28.2815C92.6612-28.2815 83.6914-32.6077 76.7268-40.4505L69.8787-35.1973C78.0407-25.7948 89.6203-20.5833 102.444-20.5833C117.94-20.5833 127.221-29.2206 127.221-40.2224C127.221-51.8769 120.007-60.0328 106.172-60.2092C96.5612-60.3338 86.9337-56.2533 73.9823-45.9243L35.3664-15.0518ZM38.6998 13.8113C53.164 13.8113 64.8351 2.07796 64.8351-12.3757C64.8351-26.84 53.164-38.6251 38.6998-38.6251C24.1838-38.6251 12.4609-26.84 12.4609-12.3757C12.4609 2.12971 24.1838 13.8113 38.6998 13.8113ZM38.648 6.21665C28.2341 6.21665 20.0039-2.07589 20.0039-12.4275C20.0039-22.7896 28.2341-31.0304 38.648-31.0304C49.0101-31.0304 57.2921-22.7896 57.2921-12.4275C57.2921-2.07589 49.0101 6.21665 38.648 6.21665ZM46.4291-49.7741L68.9718-49.7741C71.044-49.7741 72.7433-51.4629 72.7433-53.5456C72.7433-55.6177 70.9922-57.3688 68.9718-57.3688L46.4291-57.3688C44.3981-57.3688 42.6576-55.6177 42.6576-53.5456C42.6576-51.4629 44.3464-49.7741 46.4291-49.7741ZM150.153 13.8113C164.617 13.8113 176.288 2.07796 176.288-12.3757C176.288-26.84 164.617-38.6251 150.153-38.6251C135.637-38.6251 123.914-26.84 123.914-12.3757C123.914 2.12971 135.637 13.8113 150.153 13.8113ZM150.101 6.21665C139.687 6.21665 131.457-2.07589 131.457-12.4275C131.457-22.7896 139.687-31.0304 150.101-31.0304C160.463-31.0304 168.745-22.7896 168.745-12.4275C168.745-2.07589 160.463 6.21665 150.101 6.21665ZM150.049-6.01911C153.544-6.01911 156.365-8.89167 156.365-12.438C156.365-15.9949 153.596-18.8052 150.049-18.8052C146.441-18.8052 143.889-16.0467 143.837-12.438C143.786-8.89167 146.389-6.01911 150.049-6.01911ZM146.579-12.0537L153.687-14.5303L127.039-81.0249C126.127-83.3061 124.344-84.2703 121.524-84.2703L107.493-84.2703C105.359-84.2703 103.722-82.571 103.722-80.4989C103.722-78.3644 105.359-76.6756 107.493-76.6756L120.023-76.6756C120.417-76.6756 120.615-76.6028 120.791-76.2289ZM150.2-50.3243C151.933-50.1479 152.763-51.5799 152.41-53.2506L149.723-66.3457C149.36-68.0787 148.052-68.9087 146.444-68.0163C145.188-67.3003 143.995-66.2316 143.165-64.976C140.249-60.6905 141.556-54.6098 145.842-51.8704C147.035-51.0403 148.592-50.4489 150.2-50.3243ZM38.5128-6.00856C42.0592-6.00856 44.88-8.88112 44.88-12.4275C44.88-15.9844 42.111-18.7946 38.5128-18.7946C34.9559-18.7946 32.4044-16.0361 32.3527-12.4275C32.3009-8.88112 34.9042-6.00856 38.5128-6.00856ZM77.8231-2.15468L91.0448-2.15468C93.2561-2.15468 94.2721-2.68277 95.8603-4.4062L115.404-25.5913L104.75-25.6496L90.8649-10.4347C90.4076-9.96694 89.9926-9.73883 89.0992-9.73883L77.8231-9.73883C75.7509-9.73883 74.0516-8.05006 74.0516-5.96736C74.0516-3.84345 75.7509-2.15468 77.8231-2.15468Z"/>
  </g>
  <g id="Light-M" transform="matrix(1 0 0 1 1060.5 1126)">
   <path class="SFSymbolsPreviewWireframe" d="M39.7507-10.2467L75.1211-39.6682C88.3649-50.6959 96.623-53.8391 104.245-53.8391C113.923-53.8391 118.512-48.5359 118.512-41.4761C118.512-34.4566 112.683-28.1789 100.826-28.1789C89.855-28.1789 81.0905-33.1552 74.451-41.2889L69.2285-37.2164C77.3904-27.3177 88.0461-22.2431 100.75-22.2431C115.51-22.2431 124.586-30.6408 124.586-41.095C124.586-52.048 117.697-59.5879 104.564-59.7472C95.4319-59.8718 85.6504-55.8427 73.5203-45.8387L36.2391-14.9149ZM38.5115 13.4691C52.8902 13.4691 64.4929 1.80419 64.4929-12.5468C64.4929-26.9255 52.8902-38.6251 38.5115-38.6251C24.0982-38.6251 12.4609-26.9255 12.4609-12.5468C12.4609 1.83883 24.0982 13.4691 38.5115 13.4691ZM38.4769 7.60263C27.139 7.60263 18.2928-1.30589 18.2928-12.5815C18.2928-23.8847 27.139-32.7586 38.4769-32.7586C49.7801-32.7586 58.661-23.8847 58.661-12.5815C58.661-1.30589 49.7801 7.60263 38.4769 7.60263ZM45.5393-50.4756L67.9623-50.4756C69.5553-50.4756 70.8782-51.7709 70.8782-53.3916C70.8782-54.9846 69.5207-56.3421 67.9623-56.3421L45.5393-56.3421C43.9532-56.3421 42.6234-54.9846 42.6234-53.3916C42.6234-51.7709 43.9186-50.4756 45.5393-50.4756ZM146.816 13.4691C161.195 13.4691 172.798 1.80419 172.798-12.5468C172.798-26.9255 161.195-38.6251 146.816-38.6251C132.403-38.6251 120.766-26.9255 120.766-12.5468C120.766 1.83883 132.403 13.4691 146.816 13.4691ZM146.782 7.60263C135.444 7.60263 126.598-1.30589 126.598-12.5815C126.598-23.8847 135.444-32.7586 146.782-32.7586C158.085-32.7586 166.966-23.8847 166.966-12.5815C166.966-1.30589 158.085 7.60263 146.782 7.60263ZM146.747-7.0971C149.745-7.0971 152.19-9.57611 152.19-12.6091C152.19-15.6698 149.78-18.0865 146.747-18.0865C143.652-18.0865 141.408-15.7045 141.374-12.6091C141.339-9.57611 143.617-7.0971 146.747-7.0971ZM144.115-12.2076L149.614-14.1538L122.796-81.1789C122.02-83.1179 120.58-83.9281 118.239-83.9281L103.986-83.9281C102.33-83.9281 101.07-82.6052 101.07-81.0122C101.07-79.3568 102.33-78.0616 103.986-78.0616L117.131-78.0616C117.56-78.0616 117.775-77.9716 117.934-77.5978ZM145.324-51.0087C146.937-50.8495 147.698-52.1788 147.38-53.7297L144.88-65.8323C144.534-67.4455 143.33-68.2072 141.841-67.3832C140.671-66.7186 139.563-65.7354 138.801-64.5653C136.108-60.605 137.313-54.9691 141.273-52.435C142.381-51.6734 143.835-51.1333 145.324-51.0087ZM38.3246-7.06944C41.3577-7.06944 43.802-9.54845 43.802-12.5815C43.802-15.6422 41.3923-18.0589 38.3246-18.0589C35.2639-18.0589 33.0204-15.6768 32.9858-12.5815C32.9512-9.54845 35.2293-7.06944 38.3246-7.06944ZM77.2242-4.13955L89.6588-4.13955C91.8188-4.13955 92.6636-4.51364 94.2006-6.20285L112.804-26.4811L104.271-26.1287L90.1976-10.6914C89.7061-10.1723 89.3253-9.97838 88.3977-9.97838L77.2242-9.97838C75.6312-9.97838 74.3083-8.68316 74.3083-7.06246C74.3083-5.43477 75.6312-4.13955 77.2242-4.13955Z"/>
  </g>
  <g id="Thin-M" transform="matrix(1 0 0 1 766.101 1126)">
   <path class="SFSymbolsPreviewWireframe" d="M39.547-11.8535L73.2202-41.3882C86.0339-52.6195 94.8804-55.5816 102.367-55.5816C112.113-55.5816 117.448-50.5274 117.448-42.3813C117.448-35.2261 111.235-28.0431 98.4949-28.0431C86.1436-28.0431 77.6506-33.8794 71.4412-42.3978L68.3686-39.8868C76.5305-29.3318 85.9641-24.4382 98.5091-24.4382C112.297-24.4382 121.101-32.5191 121.101-42.2492C121.101-52.2743 114.642-58.9995 102.437-59.1361C93.9383-59.2608 83.9531-55.2995 72.9093-45.7256L37.3932-14.7339ZM38.2626 13.0165C52.5281 13.0165 64.0402 1.4421 64.0402-12.7731C64.0402-27.0387 52.5281-38.6251 38.2626-38.6251C23.9851-38.6251 12.4609-27.0387 12.4609-12.7731C12.4609 1.45411 23.9851 13.0165 38.2626 13.0165ZM38.2506 9.43571C25.6907 9.43571 16.0297-0.287518 16.0297-12.7852C16.0297-25.3331 25.6907-35.0443 38.2506-35.0443C50.7985-35.0443 60.4715-25.3331 60.4715-12.7852C60.4715-0.287518 50.7985 9.43571 38.2506 9.43571ZM44.3625-51.4035L66.6271-51.4035C67.5865-51.4035 68.4115-52.1782 68.4115-53.1879C68.4115-54.1473 67.5744-54.9843 66.6271-54.9843L44.3625-54.9843C43.3649-54.9843 42.5781-54.1473 42.5781-53.1879C42.5781-52.1782 43.3528-51.4035 44.3625-51.4035ZM142.403 13.0165C156.669 13.0165 168.181 1.4421 168.181-12.7731C168.181-27.0387 156.669-38.6251 142.403-38.6251C128.126-38.6251 116.602-27.0387 116.602-12.7731C116.602 1.45411 128.126 13.0165 142.403 13.0165ZM142.391 9.43571C129.831 9.43571 120.17-0.287518 120.17-12.7852C120.17-25.3331 129.831-35.0443 142.391-35.0443C154.939-35.0443 164.612-25.3331 164.612-12.7852C164.612-0.287518 154.939 9.43571 142.391 9.43571ZM142.379-8.52283C144.721-8.52283 146.668-10.4813 146.668-12.8354C146.668-15.2399 144.733-17.1361 142.379-17.1361C139.963-17.1361 138.127-15.2519 138.115-12.8354C138.103-10.4813 139.951-8.52283 142.379-8.52283ZM140.856-12.4113L144.228-13.656L117.183-81.3826C116.589-82.8689 115.601-83.4755 113.894-83.4755L99.3463-83.4755C98.3246-83.4755 97.5619-82.6505 97.5619-81.6911C97.5619-80.6694 98.3246-79.8947 99.3463-79.8947L113.306-79.8947C113.781-79.8947 114.018-79.7821 114.154-79.4083ZM138.874-51.9139C140.329-51.7773 141-52.9709 140.726-54.3634L138.476-65.1534C138.152-66.6082 137.084-67.2793 135.753-66.5459C134.696-65.9491 133.702-65.0791 133.031-64.0222C130.632-60.4918 131.7-55.4443 135.231-53.1818C136.225-52.5107 137.544-52.0386 138.874-51.9139ZM38.0757-8.47253C40.4298-8.47253 42.3763-10.431 42.3763-12.7852C42.3763-15.1896 40.4418-17.0858 38.0757-17.0858C35.6713-17.0858 33.8351-15.2016 33.8231-12.7852C33.8111-10.431 35.6593-8.47253 38.0757-8.47253ZM76.4321-6.7647L87.8257-6.7647C89.9178-6.7647 90.5364-6.93511 92.0054-8.57906L109.364-27.6579L103.638-26.7624L89.315-11.0309C88.7782-10.4438 88.4427-10.2952 87.4698-10.2952L76.4321-10.2952C75.4728-10.2952 74.6477-9.52049 74.6477-8.51081C74.6477-7.53942 75.4728-6.7647 76.4321-6.7647Z"/>
  </g>
  <g id="Ultralight-M" transform="matrix(1 0 0 1 470.572 1126)">
   <path class="SFSymbolsPreviewWireframe" d="M39.4427-12.6765L72.2465-42.2691C84.84-53.6048 93.9879-56.4741 101.405-56.4741C111.185-56.4741 116.903-51.5474 116.903-42.845C116.903-35.6202 110.493-27.9735 97.301-27.9735C84.2426-27.9735 75.8888-34.2503 69.8995-42.9658L67.9281-41.2545C76.09-30.3634 84.8977-25.5626 97.3616-25.5626C110.651-25.5626 119.316-33.4812 119.316-42.8404C119.316-52.3902 113.078-58.6981 101.347-58.8232C93.1733-58.9478 83.0837-55.0213 72.5963-45.6676L37.9844-14.6412ZM38.1351 12.7847C52.3427 12.7847 63.8084 1.25664 63.8084-12.8891C63.8084-27.0966 52.3427-38.6251 38.1351-38.6251C23.9271-38.6251 12.4609-27.0966 12.4609-12.8891C12.4609 1.25706 23.9271 12.7847 38.1351 12.7847ZM38.1347 10.3746C24.9488 10.3746 14.8706 0.23409 14.8706-12.8895C14.8706-26.0749 24.9488-36.215 38.1347-36.215C51.3201-36.215 61.3988-26.0749 61.3988-12.8895C61.3988 0.23409 51.3201 10.3746 38.1347 10.3746ZM43.7598-51.8787L65.9432-51.8787C66.578-51.8787 67.148-52.3869 67.148-53.0836C67.148-53.7184 66.5776-54.2888 65.9432-54.2888L43.7598-54.2888C43.0635-54.2888 42.5549-53.7184 42.5549-53.0836C42.5549-52.3869 43.0631-51.8787 43.7598-51.8787ZM140.143 12.7847C154.351 12.7847 165.816 1.25664 165.816-12.8891C165.816-27.0966 154.351-38.6251 140.143-38.6251C125.935-38.6251 114.469-27.0966 114.469-12.8891C114.469 1.25706 125.935 12.7847 140.143 12.7847ZM140.143 10.3746C126.957 10.3746 116.879 0.23409 116.879-12.8895C116.879-26.0749 126.957-36.215 140.143-36.215C153.328-36.215 163.407-26.0749 163.407-12.8895C163.407 0.23409 153.328 10.3746 140.143 10.3746ZM140.142-9.25308C142.148-9.25308 143.84-10.945 143.84-12.9514C143.84-15.0196 142.149-16.6492 140.142-16.6492C138.073-16.6492 136.446-15.02 136.446-12.9514C136.445-10.945 138.073-9.25308 140.142-9.25308ZM139.187-12.5156L141.469-13.401L114.309-81.4869C113.807-82.7414 113.051-83.2437 111.668-83.2437L96.9701-83.2437C96.2729-83.2437 95.7652-82.6737 95.7652-82.0388C95.7652-81.3417 96.2729-80.8336 96.9701-80.8336L111.347-80.8336C111.845-80.8336 112.094-80.7094 112.219-80.3356ZM135.57-52.3776C136.944-52.2526 137.569-53.3766 137.319-54.6879L135.196-64.8057C134.884-66.1793 133.884-66.8041 132.635-66.117C131.636-65.555 130.7-64.743 130.075-63.744C127.826-60.4338 128.826-55.6877 132.136-53.5643C133.073-52.9396 134.321-52.5022 135.57-52.3776ZM37.9482-9.19119C39.9546-9.19119 41.646-10.8831 41.646-12.8895C41.646-14.9577 39.955-16.5873 37.9482-16.5873C35.8799-16.5873 34.2524-14.9582 34.252-12.8895C34.2516-10.8831 35.8795-9.19119 37.9482-9.19119ZM76.0264-8.10929L86.8868-8.10929C88.9441-8.10929 89.4468-8.17538 90.8811-9.79614L107.602-28.2606L103.313-27.0869L88.8629-11.2047C88.303-10.5829 87.9906-10.4575 86.9946-10.4575L76.0264-10.4575C75.3916-10.4575 74.8216-9.94937 74.8216-9.25266C74.8216-8.61741 75.3916-8.10929 76.0264-8.10929Z"/>
  </g>
  <g id="Black-S" transform="matrix(1 0 0 1 2851.22 696)">
   <path class="SFSymbolsPreviewWireframe" d="M37.5977-11.2793L67.1387-34.2285C79.3457-43.75 85.0586-46.4844 91.3574-46.4844C96.7285-46.4844 99.3652-43.0664 99.3652-39.1602C99.3652-34.4238 95.2148-29.834 87.3535-29.834C79.1016-29.834 73.8281-33.1543 67.0898-40.7227L58.3496-34.1797C64.9902-26.0254 73.6816-19.7754 86.6699-19.7754C100.83-19.7754 110.205-27.1973 110.205-39.5508C110.205-49.3652 103.906-56.4453 92.5781-56.543C83.7891-56.5918 75.9277-53.6621 62.6953-43.3594L31.5918-19.1895ZM34.1309 9.7168C47.5586 9.7168 58.3984-1.17188 58.3984-14.5996C58.3984-28.0273 47.5586-38.9648 34.1309-38.9648C20.6055-38.9648 9.76562-28.0273 9.76562-14.5996C9.76562-1.17188 20.6055 9.7168 34.1309 9.7168ZM34.082-0.341797C26.1719-0.341797 19.7754-6.68945 19.7754-14.6973C19.7754-22.5586 26.2207-28.9062 34.082-28.9062C41.9434-28.9062 48.3887-22.6074 48.3887-14.6973C48.3887-6.73828 41.9434-0.341797 34.082-0.341797ZM37.793-46.7773L57.959-46.7773C60.8398-46.7773 63.1836-49.1211 63.1836-52.002C63.1836-54.8828 60.8398-57.2266 57.959-57.2266L37.793-57.2266C34.9121-57.2266 32.5684-54.8828 32.5684-52.002C32.5684-49.1211 34.9121-46.7773 37.793-46.7773ZM130.322 9.7168C143.75 9.7168 154.59-1.17188 154.59-14.5996C154.59-28.0273 143.75-38.9648 130.322-38.9648C116.797-38.9648 105.957-28.0273 105.957-14.5996C105.957-1.17188 116.797 9.7168 130.322 9.7168ZM130.273-0.341797C122.363-0.341797 115.967-6.68945 115.967-14.6973C115.967-22.5586 122.412-28.9062 130.273-28.9062C138.135-28.9062 144.58-22.6074 144.58-14.6973C144.58-6.73828 138.135-0.341797 130.273-0.341797ZM130.322-7.27539C134.424-7.27539 137.695-10.5469 137.695-14.6484C137.695-18.7988 134.473-22.0215 130.322-22.0215C126.172-22.0215 122.949-18.8477 122.9-14.6973C122.852-10.5469 126.123-7.27539 130.322-7.27539ZM125.781-10.8398L135.791-13.5254L119.287-76.416C118.555-79.1992 116.113-80.4688 112.842-80.4688L99.0723-80.4688C96.1914-80.4688 93.8477-78.125 93.8477-75.2441C93.8477-72.3633 96.1914-70.0195 99.0723-70.0195L110.254-70.0195C110.693-70.0195 110.938-69.873 111.035-69.4824ZM137.598-45.6543C139.648-45.459 140.576-47.0703 140.186-49.0234L137.061-64.1113C136.67-66.0645 135.156-66.9922 133.35-66.0156C131.836-65.1855 130.518-63.9648 129.541-62.5C126.172-57.5684 127.637-50.5859 132.617-47.4121C134.033-46.4355 135.791-45.8008 137.598-45.6543ZM34.1309-7.27539C38.2324-7.27539 41.5039-10.5469 41.5039-14.6484C41.5039-18.7988 38.2812-22.0215 34.1309-22.0215C29.9805-22.0215 26.7578-18.8477 26.709-14.6973C26.6602-10.5469 29.9316-7.27539 34.1309-7.27539ZM68.6523-4.15039L80.4688-4.15039C83.2031-4.15039 84.668-5.0293 85.9375-6.78711L102.148-29.0527L87.8906-26.416L79.4922-15.1855C79.1504-14.6973 78.9551-14.5996 78.1738-14.5996L68.6523-14.5996C65.7715-14.5996 63.4277-12.2559 63.4277-9.375C63.4277-6.49414 65.7715-4.15039 68.6523-4.15039Z"/>
  </g>
  <g id="Heavy-S" transform="matrix(1 0 0 1 2556.25 696)">
   <path class="SFSymbolsPreviewWireframe" d="M36.1225-11.9477L65.6174-34.8969C77.4903-44.1649 83.2493-46.8762 89.502-46.8762C95.3802-46.8762 98.0745-43.2277 98.0745-39.1832C98.0745-34.2971 93.9126-29.834 85.913-29.834C77.8915-29.834 72.1801-33.0967 65.7069-40.2963L57.5775-34.1912C64.1605-26.2789 73.0478-20.5245 85.3561-20.5245C99.1245-20.5245 108.027-27.8196 108.027-39.3549C108.027-49.0886 101.843-56.0765 90.5498-56.1857C82.0028-56.2461 74.2336-53.2472 61.6351-43.4285L30.5776-19.2586ZM33.255 8.21862C46.1987 8.21862 56.6467-2.27822 56.6467-15.2219C56.6467-28.1656 46.1987-38.7113 33.255-38.7113C20.2252-38.7113 9.76562-28.1656 9.76562-15.2219C9.76562-2.2667 20.2252 8.21862 33.255 8.21862ZM33.2062-1.06784C25.3421-1.06784 19.0033-7.38092 19.0033-15.3081C19.0033-23.1233 25.3794-29.4249 33.2062-29.4249C41.0214-29.4249 47.4091-23.1606 47.4091-15.3081C47.4091-7.41822 41.0214-1.06784 33.2062-1.06784ZM37.5625-46.6621L57.1523-46.6621C59.7911-46.6621 61.939-48.8099 61.939-51.4488C61.939-54.0876 59.7796-56.247 57.1523-56.247L37.5625-56.247C34.9352-56.247 32.7758-54.0876 32.7758-51.4488C32.7758-48.8099 34.9236-46.6621 37.5625-46.6621ZM127.718 8.21862C140.661 8.21862 151.109-2.27822 151.109-15.2219C151.109-28.1656 140.661-38.7113 127.718-38.7113C114.688-38.7113 104.228-28.1656 104.228-15.2219C104.228-2.2667 114.688 8.21862 127.718 8.21862ZM127.669-1.06784C119.805-1.06784 113.466-7.38092 113.466-15.3081C113.466-23.1233 119.842-29.4249 127.669-29.4249C135.484-29.4249 141.872-23.1606 141.872-15.3081C141.872-7.41822 135.484-1.06784 127.669-1.06784ZM127.695-8.34717C131.531-8.34717 134.595-11.4227 134.595-15.2708C134.595-19.1561 131.58-22.1828 127.695-22.1828C123.798-22.1828 120.829-19.2049 120.78-15.3081C120.731-11.4227 123.749-8.34717 127.695-8.34717ZM123.488-12.2919L132.633-14.8622L115.115-75.1483C114.371-77.7356 112.137-78.9014 109.062-78.9014L95.9722-78.9014C93.3218-78.9014 91.1855-76.7536 91.1855-74.1147C91.1855-71.4644 93.3218-69.3165 95.9722-69.3165L106.762-69.3165C107.167-69.3165 107.388-69.1931 107.497-68.8255ZM133.46-45.9078C135.361-45.724 136.231-47.2317 135.864-49.0465L132.958-63.1087C132.59-64.9351 131.18-65.8052 129.489-64.8862C128.09-64.1138 126.853-62.9737 125.945-61.6126C122.807-57.0152 124.179-50.5053 128.814-47.5504C130.126-46.643 131.769-46.0428 133.46-45.9078ZM33.2204-8.34717C37.0685-8.34717 40.1325-11.4227 40.1325-15.2708C40.1325-19.1561 37.1173-22.1828 33.2204-22.1828C29.3351-22.1828 26.366-19.2049 26.3172-15.3081C26.2683-11.4227 29.2863-8.34717 33.2204-8.34717ZM66.9121-5.14149L78.475-5.14149C80.9789-5.14149 82.3055-5.92821 83.575-7.59382L99.6822-28.6263L86.5768-26.6696L77.6137-15.3008C77.2719-14.8471 77.042-14.7264 76.2838-14.7264L66.9121-14.7264C64.2733-14.7264 62.1255-12.5785 62.1255-9.9397C62.1255-7.28933 64.2733-5.14149 66.9121-5.14149Z"/>
  </g>
  <g id="Bold-S" transform="matrix(1 0 0 1 2261.49 696)">
   <path class="SFSymbolsPreviewWireframe" d="M34.4727-12.6953L63.916-35.6445C75.415-44.6289 81.2256-47.3145 87.4268-47.3145C93.8721-47.3145 96.6309-43.4082 96.6309-39.209C96.6309-34.1553 92.4561-29.834 84.3018-29.834C76.5381-29.834 70.3369-33.0322 64.1602-39.8193L56.7139-34.2041C63.2324-26.5625 72.3389-21.3623 83.8867-21.3623C97.2168-21.3623 105.591-28.5156 105.591-39.1357C105.591-48.7793 99.5361-55.6641 88.2812-55.7861C80.0049-55.8594 72.3389-52.7832 60.4492-43.5059L29.4434-19.3359ZM32.2754 6.54297C44.6777 6.54297 54.6875-3.51562 54.6875-15.918C54.6875-28.3203 44.6777-38.4277 32.2754-38.4277C19.7998-38.4277 9.76562-28.3203 9.76562-15.918C9.76562-3.49121 19.7998 6.54297 32.2754 6.54297ZM32.2266-1.87988C24.4141-1.87988 18.1396-8.1543 18.1396-15.9912C18.1396-23.7549 24.4385-30.0049 32.2266-30.0049C39.9902-30.0049 46.3135-23.7793 46.3135-15.9912C46.3135-8.17871 39.9902-1.87988 32.2266-1.87988ZM37.3047-46.5332L56.25-46.5332C58.6182-46.5332 60.5469-48.4619 60.5469-50.8301C60.5469-53.1982 58.5938-55.1514 56.25-55.1514L37.3047-55.1514C34.9609-55.1514 33.0078-53.1982 33.0078-50.8301C33.0078-48.4619 34.9365-46.5332 37.3047-46.5332ZM124.805 6.54297C137.207 6.54297 147.217-3.51562 147.217-15.918C147.217-28.3203 137.207-38.4277 124.805-38.4277C112.329-38.4277 102.295-28.3203 102.295-15.918C102.295-3.49121 112.329 6.54297 124.805 6.54297ZM124.756-1.87988C116.943-1.87988 110.669-8.1543 110.669-15.9912C110.669-23.7549 116.968-30.0049 124.756-30.0049C132.52-30.0049 138.843-23.7793 138.843-15.9912C138.843-8.17871 132.52-1.87988 124.756-1.87988ZM124.756-9.5459C128.296-9.5459 131.128-12.4023 131.128-15.9668C131.128-19.5557 128.345-22.3633 124.756-22.3633C121.143-22.3633 118.457-19.6045 118.408-15.9912C118.359-12.4023 121.094-9.5459 124.756-9.5459ZM120.923-13.916L129.102-16.3574L110.449-73.7305C109.692-76.0986 107.69-77.1484 104.834-77.1484L92.5049-77.1484C90.1123-77.1484 88.208-75.2197 88.208-72.8516C88.208-70.459 90.1123-68.5303 92.5049-68.5303L102.856-68.5303C103.223-68.5303 103.418-68.4326 103.54-68.0908ZM128.833-46.1914C130.566-46.0205 131.372-47.4121 131.03-49.0723L128.369-61.9873C128.027-63.6719 126.733-64.4775 125.171-63.623C123.901-62.915 122.754-61.8652 121.924-60.6201C119.043-56.3965 120.312-50.415 124.561-47.7051C125.757-46.875 127.271-46.3135 128.833-46.1914ZM32.2021-9.5459C35.7666-9.5459 38.5986-12.4023 38.5986-15.9668C38.5986-19.5557 35.8154-22.3633 32.2021-22.3633C28.6133-22.3633 25.9277-19.6045 25.8789-15.9912C25.8301-12.4023 28.5645-9.5459 32.2021-9.5459ZM64.9658-6.25L76.2451-6.25C78.4912-6.25 79.6631-6.93359 80.9326-8.49609L96.9238-28.1494L85.1074-26.9531L75.5127-15.4297C75.1709-15.0146 74.9023-14.8682 74.1699-14.8682L64.9658-14.8682C62.5977-14.8682 60.6689-12.9395 60.6689-10.5713C60.6689-8.17871 62.5977-6.25 64.9658-6.25Z"/>
  </g>
  <g id="Semibold-S" transform="matrix(1 0 0 1 1966.12 696)">
   <path class="SFSymbolsPreviewWireframe" d="M33.3352-13.2107L62.743-36.16C73.9843-44.9488 79.8304-47.6166 85.996-47.6166C92.8323-47.6166 95.6355-43.5326 95.6355-39.2268C95.6355-34.0575 91.4519-29.834 83.1909-29.834C75.605-29.834 69.0661-32.9878 63.0938-39.4905L56.1185-34.213C62.5926-26.758 71.8501-21.9399 82.8736-21.9399C95.9016-21.9399 103.911-28.9955 103.911-38.9847C103.911-48.566 97.9454-55.3797 86.7172-55.5106C78.6274-55.5928 71.0325-52.4633 59.6316-43.5592L28.6613-19.3893ZM31.6 5.3877C43.6291 5.3877 53.3367-4.36875 53.3367-16.3979C53.3367-28.427 43.6291-38.2322 31.6-38.2322C19.5065-38.2322 9.76562-28.427 9.76562-16.3979C9.76562-4.33545 19.5065 5.3877 31.6 5.3877ZM31.5512-2.43975C23.7742-2.43975 17.5442-8.6875 17.5442-16.4622C17.5442-24.1903 23.7897-30.4048 31.5512-30.4048C39.2793-30.4048 45.5581-24.2059 45.5581-16.4622C45.5581-8.70303 39.2793-2.43975 31.5512-2.43975ZM37.127-46.4443L55.6279-46.4443C57.8095-46.4443 59.5871-48.222 59.5871-50.4035C59.5871-52.5851 57.7762-54.396 55.6279-54.396L37.127-54.396C34.9787-54.396 33.1678-52.5851 33.1678-50.4035C33.1678-48.222 34.9454-46.4443 37.127-46.4443ZM122.796 5.3877C134.825 5.3877 144.533-4.36875 144.533-16.3979C144.533-28.427 134.825-38.2322 122.796-38.2322C110.703-38.2322 100.962-28.427 100.962-16.3979C100.962-4.33545 110.703 5.3877 122.796 5.3877ZM122.747-2.43975C114.971-2.43975 108.741-8.6875 108.741-16.4622C108.741-24.1903 114.986-30.4048 122.747-30.4048C130.476-30.4048 136.754-24.2059 136.754-16.4622C136.754-8.70303 130.476-2.43975 122.747-2.43975ZM122.73-10.3724C126.065-10.3724 128.737-13.0777 128.737-16.4467C128.737-19.8312 126.114-22.4877 122.73-22.4877C119.312-22.4877 116.822-19.88 116.773-16.4622C116.724-13.0777 119.263-10.3724 122.73-10.3724ZM119.154-15.0357L126.667-17.3883L107.232-72.7529C106.467-74.97 104.625-75.9398 101.919-75.9398L90.1144-75.9398C87.8995-75.9398 86.1552-74.1622 86.1552-71.9807C86.1552-69.7658 87.8995-67.9882 90.1144-67.9882L100.164-67.9882C100.503-67.9882 100.681-67.9083 100.812-67.5843ZM125.643-46.3869C127.261-46.2249 128.022-47.5365 127.698-49.09L125.205-61.2142C124.881-62.801 123.667-63.5622 122.194-62.7521C121.013-62.0886 119.928-61.101 119.151-59.9358C116.448-55.9699 117.646-50.3528 121.628-47.8117C122.744-47.035 124.169-46.5001 125.643-46.3869ZM31.5001-10.3724C34.869-10.3724 37.5411-13.0777 37.5411-16.4467C37.5411-19.8312 34.9179-22.4877 31.5001-22.4877C28.1156-22.4877 25.6256-19.88 25.5768-16.4622C25.5279-13.0777 28.0668-10.3724 31.5001-10.3724ZM63.6239-7.01426L74.7077-7.01426C76.7761-7.01426 77.8413-7.62676 79.1108-9.11816L95.0221-27.8206L84.0943-27.1486L74.0642-15.5186C73.7224-15.1302 73.4271-14.9659 72.7125-14.9659L63.6239-14.9659C61.4424-14.9659 59.6647-13.1883 59.6647-11.0067C59.6647-8.79189 61.4424-7.01426 63.6239-7.01426Z"/>
  </g>
  <g id="Medium-S" transform="matrix(1 0 0 1 1670.42 696)">
   <path class="SFSymbolsPreviewWireframe" d="M32.4727-13.6016L61.8535-36.5508C72.8994-45.1914 78.7725-47.8457 84.9111-47.8457C92.0439-47.8457 94.8809-43.627 94.8809-39.2402C94.8809-33.9834 90.6904-29.834 82.3486-29.834C74.8975-29.834 68.1025-32.9541 62.2852-39.2412L55.667-34.2197C62.1074-26.9062 71.4795-22.3779 82.1055-22.3779C94.9043-22.3779 102.638-29.3594 102.638-38.8701C102.638-48.4043 96.7393-55.1641 85.5312-55.3018C77.583-55.3906 70.042-52.2207 59.0117-43.5996L28.0684-19.4297ZM31.0879 4.51172C42.834 4.51172 52.3125-5.01562 52.3125-16.7617C52.3125-28.5078 42.834-38.084 31.0879-38.084C19.2842-38.084 9.76562-28.5078 9.76562-16.7617C9.76562-4.97559 19.2842 4.51172 31.0879 4.51172ZM31.0391-2.86426C23.2891-2.86426 17.0928-9.0918 17.0928-16.8193C17.0928-24.5205 23.2979-30.708 31.0391-30.708C38.7402-30.708 44.9854-24.5293 44.9854-16.8193C44.9854-9.10059 38.7402-2.86426 31.0391-2.86426ZM36.9922-46.377L55.1562-46.377C57.1963-46.377 58.8594-48.04 58.8594-50.0801C58.8594-52.1201 57.1562-53.8232 55.1562-53.8232L36.9922-53.8232C34.9922-53.8232 33.2891-52.1201 33.2891-50.0801C33.2891-48.04 34.9521-46.377 36.9922-46.377ZM121.273 4.51172C133.02 4.51172 142.498-5.01562 142.498-16.7617C142.498-28.5078 133.02-38.084 121.273-38.084C109.47-38.084 99.9512-28.5078 99.9512-16.7617C99.9512-4.97559 109.47 4.51172 121.273 4.51172ZM121.225-2.86426C113.475-2.86426 107.278-9.0918 107.278-16.8193C107.278-24.5205 113.483-30.708 121.225-30.708C128.926-30.708 135.171-24.5293 135.171-16.8193C135.171-9.10059 128.926-2.86426 121.225-2.86426ZM121.193-10.999C124.374-10.999 126.925-13.5898 126.925-16.8105C126.925-20.04 124.423-22.582 121.193-22.582C117.924-22.582 115.582-20.0889 115.533-16.8193C115.484-13.5898 117.875-10.999 121.193-10.999ZM117.813-15.8848L124.82-18.1699L104.793-72.0117C104.021-74.1143 102.3-75.0234 99.709-75.0234L88.3018-75.0234C86.2217-75.0234 84.5986-73.3604 84.5986-71.3203C84.5986-69.2402 86.2217-67.5771 88.3018-67.5771L98.1221-67.5771C98.4414-67.5771 98.6055-67.5107 98.7432-67.2002ZM123.224-46.5352C124.754-46.3799 125.481-47.6309 125.171-49.1035L122.807-60.6279C122.496-62.1406 121.343-62.8682 119.937-62.0918C118.823-61.4619 117.785-60.5215 117.049-59.417C114.48-55.6465 115.625-50.3057 119.404-47.8926C120.46-47.1562 121.817-46.6416 123.224-46.5352ZM30.9678-10.999C34.1885-10.999 36.7393-13.5898 36.7393-16.8105C36.7393-20.04 34.2373-22.582 30.9678-22.582C27.7383-22.582 25.3965-20.0889 25.3477-16.8193C25.2988-13.5898 27.6895-10.999 30.9678-10.999ZM62.6064-7.59375L73.542-7.59375C75.4756-7.59375 76.46-8.15234 77.7295-9.58984L93.5801-27.5713L83.3262-27.2969L72.9658-15.5859C72.624-15.2178 72.3086-15.04 71.6074-15.04L62.6064-15.04C60.5664-15.04 58.9033-13.377 58.9033-11.3369C58.9033-9.25684 60.5664-7.59375 62.6064-7.59375Z"/>
  </g>
  <g id="Regular-S" transform="matrix(1 0 0 1 1375.04 696)">
   <path class="SFSymbolsPreviewWireframe" d="M31.3477-14.1113L60.6934-37.0605C71.4844-45.5078 77.3926-48.1445 83.4961-48.1445C91.0156-48.1445 93.8965-43.75 93.8965-39.2578C93.8965-33.8867 89.6973-29.834 81.25-29.834C73.9746-29.834 66.8457-32.9102 61.2305-38.916L55.0781-34.2285C61.4746-27.0996 70.9961-22.9492 81.1035-22.9492C93.6035-22.9492 100.977-29.834 100.977-38.7207C100.977-48.1934 95.166-54.8828 83.9844-55.0293C76.2207-55.127 68.75-51.9043 58.2031-43.6523L27.2949-19.4824ZM30.4199 3.36914C41.7969 3.36914 50.9766-5.85938 50.9766-17.2363C50.9766-28.6133 41.7969-37.8906 30.4199-37.8906C18.9941-37.8906 9.76562-28.6133 9.76562-17.2363C9.76562-5.81055 18.9941 3.36914 30.4199 3.36914ZM30.3711-3.41797C22.6562-3.41797 16.5039-9.61914 16.5039-17.2852C16.5039-24.9512 22.6562-31.1035 30.3711-31.1035C38.0371-31.1035 44.2383-24.9512 44.2383-17.2852C44.2383-9.61914 38.0371-3.41797 30.3711-3.41797ZM36.8164-46.2891L54.541-46.2891C56.3965-46.2891 57.9102-47.8027 57.9102-49.6582C57.9102-51.5137 56.3477-53.0762 54.541-53.0762L36.8164-53.0762C35.0098-53.0762 33.4473-51.5137 33.4473-49.6582C33.4473-47.8027 34.9609-46.2891 36.8164-46.2891ZM119.287 3.36914C130.664 3.36914 139.844-5.85938 139.844-17.2363C139.844-28.6133 130.664-37.8906 119.287-37.8906C107.861-37.8906 98.6328-28.6133 98.6328-17.2363C98.6328-5.81055 107.861 3.36914 119.287 3.36914ZM119.238-3.41797C111.523-3.41797 105.371-9.61914 105.371-17.2852C105.371-24.9512 111.523-31.1035 119.238-31.1035C126.904-31.1035 133.105-24.9512 133.105-17.2852C133.105-9.61914 126.904-3.41797 119.238-3.41797ZM119.189-11.8164C122.168-11.8164 124.561-14.2578 124.561-17.2852C124.561-20.3125 122.217-22.7051 119.189-22.7051C116.113-22.7051 113.965-20.3613 113.916-17.2852C113.867-14.2578 116.064-11.8164 119.189-11.8164ZM116.064-16.9922L122.412-19.1895L101.611-71.0449C100.83-72.998 99.2676-73.8281 96.8262-73.8281L85.9375-73.8281C84.0332-73.8281 82.5684-72.3145 82.5684-70.459C82.5684-68.5547 84.0332-67.041 85.9375-67.041L95.459-67.041C95.752-67.041 95.8984-66.9922 96.0449-66.6992ZM120.068-46.7285C121.484-46.582 122.168-47.7539 121.875-49.1211L119.678-59.8633C119.385-61.2793 118.311-61.9629 116.992-61.2305C115.967-60.6445 114.99-59.7656 114.307-58.7402C111.914-55.2246 112.988-50.2441 116.504-47.998C117.48-47.3145 118.75-46.8262 120.068-46.7285ZM30.2734-11.8164C33.3008-11.8164 35.6934-14.2578 35.6934-17.2852C35.6934-20.3125 33.3496-22.7051 30.2734-22.7051C27.2461-22.7051 25.0977-20.3613 25.0488-17.2852C25-14.2578 27.1973-11.8164 30.2734-11.8164ZM61.2793-8.34961L72.0215-8.34961C73.7793-8.34961 74.6582-8.83789 75.9277-10.2051L91.6992-27.2461L82.3242-27.4902L71.5332-15.6738C71.1914-15.332 70.8496-15.1367 70.166-15.1367L61.2793-15.1367C59.4238-15.1367 57.9102-13.623 57.9102-11.7676C57.9102-9.86328 59.4238-8.34961 61.2793-8.34961Z"/>
  </g>
  <g id="Light-S" transform="matrix(1 0 0 1 1079.87 696)">
   <path class="SFSymbolsPreviewWireframe" d="M31.2114-15.186L59.4219-38.2109C69.9253-46.7944 76.2271-49.31 82.2398-49.31C89.8047-49.31 93.1851-45.082 93.1851-39.8633C93.1851-34.4014 88.7285-29.7432 79.6909-29.7432C71.4922-29.7432 64.5449-33.3945 59.2173-39.6577L54.5029-36.0146C60.8994-28.4468 69.6035-24.4175 79.605-24.4175C91.4541-24.4175 98.6455-31.0903 98.6455-39.4927C98.6455-48.3447 93.1226-54.4893 82.5615-54.6206C75.2217-54.7183 67.6148-51.541 57.7944-43.5767L28.0669-19.3613ZM30.2534 3.06641C41.5547 3.06641 50.6738-6.10156 50.6738-17.3877C50.6738-28.689 41.5547-37.8906 30.2534-37.8906C18.9185-37.8906 9.76562-28.689 9.76562-17.3877C9.76562-6.06787 18.9185 3.06641 30.2534 3.06641ZM30.2197-2.1919C21.6875-2.1919 14.9902-8.93799 14.9902-17.4214C14.9902-25.9199 21.6875-32.6323 30.2197-32.6323C38.7183-32.6323 45.4492-25.9199 45.4492-17.4214C45.4492-8.93799 38.7183-2.1919 30.2197-2.1919ZM36.0293-46.9097L53.648-46.9097C55.0796-46.9097 56.2603-48.0752 56.2603-49.522C56.2603-50.9536 55.0459-52.168 53.648-52.168L36.0293-52.168C34.6162-52.168 33.417-50.9536 33.417-49.522C33.417-48.0752 34.5825-46.9097 36.0293-46.9097ZM116.335 3.06641C127.637 3.06641 136.756-6.10156 136.756-17.3877C136.756-28.689 127.637-37.8906 116.335-37.8906C105.001-37.8906 95.8477-28.689 95.8477-17.3877C95.8477-6.06787 105.001 3.06641 116.335 3.06641ZM116.302-2.1919C107.77-2.1919 101.072-8.93799 101.072-17.4214C101.072-25.9199 107.77-32.6323 116.302-32.6323C124.8-32.6323 131.531-25.9199 131.531-17.4214C131.531-8.93799 124.8-2.1919 116.302-2.1919ZM116.268-12.77C118.808-12.77 120.867-14.8633 120.867-17.4365C120.867-20.0249 118.841-22.0693 116.268-22.0693C113.646-22.0693 111.77-20.0586 111.736-17.4365C111.703-14.8633 113.612-12.77 116.268-12.77ZM113.885-17.1284L118.81-18.8564L97.8575-71.1812C97.1973-72.8315 95.9375-73.5254 93.9199-73.5254L82.8345-73.5254C81.354-73.5254 80.2222-72.3447 80.2222-70.9131C80.2222-69.4326 81.354-68.2671 82.8345-68.2671L92.9009-68.2671C93.2241-68.2671 93.3858-68.2031 93.5171-67.9101ZM115.754-47.334C117.064-47.2026 117.688-48.2837 117.425-49.5449L115.394-59.4092C115.116-60.7192 114.133-61.3423 112.92-60.6704C111.971-60.1299 111.07-59.3267 110.447-58.377C108.251-55.1489 109.234-50.562 112.462-48.4976C113.363-47.8745 114.542-47.4316 115.754-47.334ZM30.1069-12.7549C32.6802-12.7549 34.7398-14.8481 34.7398-17.4214C34.7398-20.0098 32.7139-22.0542 30.1069-22.0542C27.5186-22.0542 25.6426-20.0435 25.6089-17.4214C25.5752-14.8481 27.4849-12.7549 30.1069-12.7549ZM60.7495-10.1055L70.7954-10.1055C72.5078-10.1055 73.2354-10.4575 74.4595-11.7944L89.3985-28.0332L81.9004-27.9141L70.9429-15.9009C70.5708-15.5137 70.2593-15.3486 69.5454-15.3486L60.7495-15.3486C59.3179-15.3486 58.1372-14.1831 58.1372-12.7363C58.1372-11.271 59.3179-10.1055 60.7495-10.1055Z"/>
  </g>
  <g id="Thin-S" transform="matrix(1 0 0 1 785.203 696)">
   <path class="SFSymbolsPreviewWireframe" d="M31.0313-16.6074L57.7403-39.7324C67.8633-48.4961 74.6856-50.8515 80.5781-50.8515C88.2031-50.8515 92.2442-46.8437 92.2442-40.6641C92.2442-35.082 87.4473-29.623 77.6289-29.623C68.209-29.623 61.502-34.0351 56.5547-40.6387L53.7422-38.3769C60.1387-30.2285 67.7617-26.3593 77.6231-26.3593C88.6114-26.3593 95.5625-32.7519 95.5625-40.5137C95.5625-48.5449 90.42-53.9688 80.6797-54.0801C73.9004-54.1777 66.1133-51.0606 57.2539-43.4766L29.0879-19.2012ZM30.0332 2.66602C41.2344 2.66602 50.2734-6.42187 50.2734-17.5879C50.2734-28.7891 41.2344-37.8906 30.0332-37.8906C18.8184-37.8906 9.76562-28.7891 9.76562-17.5879C9.76562-6.4082 18.8184 2.66602 30.0332 2.66602ZM30.0195-0.570335C20.4063-0.570335 12.9883-8.03712 12.9883-17.6016C12.9883-27.2012 20.4063-34.6543 30.0195-34.6543C39.6191-34.6543 47.0508-27.2012 47.0508-17.6016C47.0508-8.03712 39.6191-0.570335 30.0195-0.570335ZM34.9883-47.7305L52.4668-47.7305C53.3379-47.7305 54.0782-48.4355 54.0782-49.3418C54.0782-50.2129 53.3242-50.9668 52.4668-50.9668L34.9883-50.9668C34.0957-50.9668 33.377-50.2129 33.377-49.3418C33.377-48.4355 34.082-47.7305 34.9883-47.7305ZM112.432 2.66602C123.633 2.66602 132.672-6.42187 132.672-17.5879C132.672-28.7891 123.633-37.8906 112.432-37.8906C101.217-37.8906 92.1641-28.7891 92.1641-17.5879C92.1641-6.4082 101.217 2.66602 112.432 2.66602ZM112.418-0.570335C102.805-0.570335 95.3868-8.03712 95.3868-17.6016C95.3868-27.2012 102.805-34.6543 112.418-34.6543C122.018-34.6543 129.449-27.2012 129.449-17.6016C129.449-8.03712 122.018-0.570335 112.418-0.570335ZM112.404-14.0312C114.363-14.0312 115.982-15.6641 115.982-17.6367C115.982-19.6445 114.377-21.2285 112.404-21.2285C110.383-21.2285 108.867-19.6582 108.854-17.6367C108.84-15.6641 110.369-14.0312 112.404-14.0312ZM111.002-17.3086L114.045-18.416L92.8926-71.3613C92.3926-72.6113 91.5333-73.125 90.0762-73.125L78.7305-73.125C77.8106-73.125 77.1192-72.3848 77.1192-71.5137C77.1192-70.5937 77.8106-69.8886 78.7305-69.8886L89.5176-69.8886C89.8809-69.8886 90.0625-69.8047 90.1739-69.5117ZM110.049-48.1348C111.219-48.0234 111.762-48.9844 111.539-50.1055L109.729-58.8086C109.471-59.9785 108.607-60.5215 107.535-59.9297C106.686-59.4492 105.885-58.7461 105.342-57.8965C103.406-55.0488 104.27-50.9824 107.117-49.1582C107.918-48.6152 108.977-48.2324 110.049-48.1348ZM29.8867-13.9961C31.8594-13.9961 33.4785-15.6289 33.4785-17.6016C33.4785-19.6094 31.8731-21.1934 29.8867-21.1934C27.8789-21.1934 26.3633-19.6231 26.3496-17.6016C26.3359-15.6289 27.8652-13.9961 29.8867-13.9961ZM60.0488-12.4277L69.1739-12.4277C70.8262-12.4277 71.3535-12.5996 72.5176-13.8965L86.3555-29.0742L81.3399-28.4746L70.1621-16.2012C69.75-15.7539 69.4785-15.6289 68.7246-15.6289L60.0488-15.6289C59.1777-15.6289 58.4375-14.9238 58.4375-14.0176C58.4375-13.1328 59.1777-12.4277 60.0488-12.4277Z"/>
  </g>
  <g id="Ultralight-S" transform="matrix(1 0 0 1 489.538 696)">
   <path class="SFSymbolsPreviewWireframe" d="M30.939-17.3354L56.8789-40.5117C66.8072-49.3676 73.896-51.6411 79.7271-51.6411C87.3828-51.6411 91.7622-47.7461 91.7622-41.0742C91.7622-35.4307 86.791-29.5615 76.5728-29.5615C66.5274-29.5615 59.9434-34.3633 55.191-41.1411L53.3526-39.5869C59.749-31.1411 66.8184-27.354 76.6079-27.354C87.1553-27.354 93.9835-33.603 93.9835-41.0366C93.9835-48.6475 89.0357-53.7022 79.7159-53.8032C73.2237-53.9009 65.3443-50.8145 56.9771-43.4253L29.6108-19.1191ZM29.9204 2.46094C41.0703 2.46094 50.0684-6.58593 50.0684-17.6904C50.0684-28.8403 41.0703-37.8906 29.9204-37.8906C18.7671-37.8906 9.76562-28.8403 9.76562-17.6904C9.76562-6.58251 18.7671 2.46094 29.9204 2.46094ZM29.917 0.260225C19.75 0.260225 11.9629-7.5757 11.9629-17.6938C11.9629-27.8574 19.75-35.6899 29.917-35.6899C40.0806-35.6899 47.8711-27.8574 47.8711-17.6938C47.8711-7.5757 40.0806 0.260225 29.917 0.260225ZM34.4551-48.1509L51.8618-48.1509C52.4458-48.1509 52.9605-48.6201 52.9605-49.2495C52.9605-49.8335 52.4424-50.3516 51.8618-50.3516L34.4551-50.3516C33.8291-50.3516 33.3564-49.8335 33.3564-49.2495C33.3564-48.6201 33.8257-48.1509 34.4551-48.1509ZM110.432 2.46094C121.582 2.46094 130.58-6.58593 130.58-17.6904C130.58-28.8403 121.582-37.8906 110.432-37.8906C99.2789-37.8906 90.2774-28.8403 90.2774-17.6904C90.2774-6.58251 99.2789 2.46094 110.432 2.46094ZM110.429 0.260225C100.262 0.260225 92.4747-7.5757 92.4747-17.6938C92.4747-27.8574 100.262-35.6899 110.429-35.6899C120.592-35.6899 128.383-27.8574 128.383-17.6938C128.383-7.5757 120.592 0.260225 110.429 0.260225ZM110.425-14.6772C112.087-14.6772 113.481-16.0742 113.481-17.7393C113.481-19.4497 112.09-20.7979 110.425-20.7979C108.711-20.7979 107.38-19.4531 107.377-17.7393C107.374-16.0742 108.708-14.6772 110.425-14.6772ZM109.525-17.4009L111.605-18.1904L90.3497-71.4536C89.9317-72.4985 89.2774-72.9199 88.1075-72.9199L76.6285-72.9199C75.9957-72.9199 75.5298-72.4053 75.5298-71.8213C75.5298-71.1885 75.9957-70.7192 76.6285-70.7192L87.7847-70.7192C88.1685-70.7192 88.3604-70.625 88.4615-70.332ZM107.127-48.5449C108.225-48.4438 108.727-49.3432 108.525-50.3926L106.827-58.501C106.579-59.5991 105.777-60.1011 104.777-59.5503C103.979-59.1006 103.229-58.4487 102.727-57.6504C100.925-54.9976 101.727-51.1977 104.379-49.4966C105.129-48.9946 106.126-48.6426 107.127-48.5449ZM29.7739-14.6318C31.439-14.6318 32.8325-16.0288 32.8325-17.6938C32.8325-19.4043 31.4424-20.7525 29.7739-20.7525C28.0635-20.7525 26.7324-19.4077 26.729-17.6938C26.7256-16.0288 28.0601-14.6318 29.7739-14.6318ZM59.69-13.6171L68.3433-13.6171C69.9649-13.6171 70.3897-13.6967 71.523-14.9731L84.7969-29.6074L81.0527-28.7617L69.7622-16.355C69.3296-15.8769 69.0786-15.7725 68.3042-15.7725L59.69-15.7725C59.106-15.7725 58.5913-15.3032 58.5913-14.6738C58.5913-14.0864 59.106-13.6171 59.69-13.6171Z"/>
  </g>
 </g>
</svg>
